<svg width="34" height="30" viewBox="0 0 34 30" fill="none" xmlns="http://www.w3.org/2000/svg">
<g clip-path="url(#clip0_37_10918)">
<path d="M29.6176 4.52941C29.1176 4.52941 28.6176 4.52941 28.1176 4.52941C27.1471 4.52941 26.1176 4.52941 25.1471 4.52941C25 4.52941 25 4.5 24.9706 4.41177C24.8235 3.88235 24.6471 3.35294 24.4706 2.85294C23.8529 1.14706 22.2353 0 20.4706 0H13.1765C11.4412 0 9.85294 1.11765 9.23529 2.82353C9.05882 3.29412 8.88235 3.79412 8.73529 4.32353C8.70588 4.44118 8.70588 4.47059 8.52941 4.47059H4.26471C1.88235 4.44118 0 6.35294 0 8.82353V25.5588C0 28.0294 1.91176 30 4.38235 30H29.6176C31.9412 30 33.8824 28 33.8824 25.6471V8.85294C33.8824 6.5 31.9118 4.52941 29.6176 4.52941ZM11.6471 6.26471C11.7647 5.94118 11.8529 5.64706 11.9412 5.32353C12.0588 4.91177 12.2059 4.5 12.3529 4.11765C12.6176 3.29412 13.1176 2.91176 13.9412 2.91176H20.3235C21.1471 2.91176 21.6471 3.29412 21.9118 4.11765C22.0294 4.41177 22.1176 4.73529 22.2059 5.02941C22.3529 5.44118 22.4706 5.85294 22.6176 6.26471C22.8824 7.02941 23.3529 7.38235 24.1471 7.38235H29.2353C29.8824 7.38235 30.3529 7.61765 30.6765 8.05882C30.9118 8.38235 30.9412 8.76471 30.9412 9.23529V25.2353C30.9118 26.5 30.3235 27.1176 29.1176 27.1176H16.8235C12.8235 27.1176 8.67647 27.1176 4.55882 27.0882C4.20588 27.0882 3.85294 27.0882 3.52941 26.8824C2.97059 26.5882 2.70588 26.0588 2.70588 25.3235V9.20588C2.70588 8.88235 2.73529 8.5 2.94118 8.14706C3.26471 7.58824 3.73529 7.35294 4.44118 7.35294H10.1176C10.9118 7.35294 11.3824 7.02941 11.6471 6.26471Z" fill="#3A506B"/>
<path d="M10.735 22.912C12.3527 24.5885 14.588 25.5591 16.8527 25.5885H16.8821C21.6174 25.5885 25.4997 21.6767 25.5586 16.8532C25.5586 14.4414 24.6468 12.2061 22.9409 10.5002C21.2939 8.85317 19.1468 7.94141 16.9115 7.94141H16.8821C14.6174 7.94141 12.4997 8.85317 10.8527 10.5002C9.17622 12.1767 8.26445 14.412 8.29387 16.7355C8.23504 19.0296 9.08798 21.2355 10.735 22.912ZM16.588 10.8826C16.7056 10.8826 16.8233 10.8826 16.9115 10.8826C19.7645 10.8826 22.2939 13.1179 22.588 16.0296C22.8233 18.1473 22.0292 19.6473 21.3233 20.5002C20.3821 21.6767 18.9703 22.4414 17.588 22.6179C15.4409 22.8532 13.9703 22.0002 13.1174 21.2355C12.0292 20.2649 11.2939 18.8826 11.1468 17.4414C10.9703 15.7061 11.4703 14.0885 12.588 12.8238C13.6468 11.6179 15.1174 10.912 16.588 10.8826Z" fill="#3A506B"/>
<path d="M27.9411 11.9704C28.7646 11.9704 29.3822 11.3527 29.3822 10.5292C29.3822 9.67624 28.794 9.05859 27.9705 9.05859C27.1764 9.05859 26.5587 9.67624 26.5293 10.4998C26.5293 11.3527 27.1175 11.9704 27.9411 11.9704Z" fill="#3A506B"/>
</g>
<defs>
<clipPath id="clip0_37_10918">
<rect width="33.8824" height="30" fill="white"/>
</clipPath>
</defs>
</svg>
