<svg width="20" height="18" viewBox="0 0 20 18" fill="none" xmlns="http://www.w3.org/2000/svg">
<g clip-path="url(#clip0_37_6123)">
<path d="M19.7088 5.51428C19.6894 5.45603 19.6894 5.37836 19.67 5.3201C19.6506 5.18418 19.6117 5.04826 19.5923 4.91234C19.3205 3.49486 18.6603 2.34923 17.6506 1.51428C16.3884 0.485151 14.9321 0.116219 13.3205 0.388064C12.0778 0.601656 11.0292 1.28127 10.0972 2.4269C10.0583 2.46573 10.0389 2.50457 10.0195 2.52399C10.0001 2.50457 9.96125 2.46573 9.94183 2.4269C8.71853 0.912336 7.28164 0.213307 5.49523 0.290977C4.40785 0.349229 3.43698 0.698744 2.60202 1.33952C1.2428 2.36865 0.48552 3.82496 0.33018 5.6502C0.194258 7.08709 0.56319 8.52399 1.43698 9.86379C2.21368 11.0871 3.22338 12.0774 4.11659 12.8929C5.28164 13.9609 6.50494 15.0094 7.6894 16.0191C8.17484 16.4463 8.66028 16.8541 9.16513 17.2813C9.43698 17.5143 9.72824 17.6308 10.0195 17.6308C10.3302 17.6308 10.6214 17.5143 10.8933 17.2619C11.204 16.99 11.5146 16.7376 11.8059 16.4852C12.5049 15.8832 13.2234 15.2619 13.9224 14.6599L14.0389 14.5628C15.2234 13.5337 16.4467 12.4852 17.4952 11.3007C18.4661 10.1939 19.0875 9.18418 19.4176 8.11622C19.5341 7.7667 19.5923 7.41719 19.6506 7.06768C19.67 6.99001 19.6894 6.91234 19.6894 6.85408L19.7088 5.51428ZM17.1069 9.66962C16.1943 10.8929 15.068 11.9026 14.0778 12.7764C13.3787 13.3978 12.6409 14.0191 11.9612 14.6211C11.3399 15.1453 10.7185 15.689 10.1166 16.2133C10.0389 16.2716 10.0389 16.2716 9.96125 16.1939C9.43698 15.7279 8.9127 15.2813 8.38843 14.8347C7.39814 13.9803 6.36901 13.1065 5.37872 12.2133C4.44668 11.3784 3.47581 10.4269 2.69911 9.28127C2.0195 8.27156 1.6894 7.26185 1.70882 6.25214C1.72824 4.44632 2.40785 3.12593 3.74766 2.27156C4.29134 1.92204 4.89329 1.74729 5.53406 1.70845C5.61173 1.70845 5.6894 1.68903 5.72824 1.68903H5.76707C6.71853 1.70845 7.53406 1.99971 8.23309 2.58224C8.64086 2.93175 8.99037 3.35894 9.32047 3.88321C9.51465 4.17447 9.72824 4.32981 10.0001 4.32981C10.3108 4.34923 10.5632 4.21331 10.7574 3.94146C10.971 3.63078 11.1845 3.3201 11.437 3.02884C12.2525 2.13564 13.204 1.66962 14.2719 1.68903C15.7865 1.70845 16.9515 2.36865 17.7477 3.68903C18.1166 4.31039 18.3302 5.02884 18.3884 5.88321C18.4661 7.18418 18.0389 8.4269 17.1069 9.66962Z" fill="#0B132B"/>
<path d="M10 17.9222C9.63111 17.9222 9.2816 17.7862 8.9515 17.495C8.69907 17.2814 8.46606 17.0678 8.21364 16.8736C7.96121 16.66 7.7282 16.4658 7.47577 16.2522L7.33985 16.1163C6.21364 15.1455 5.04859 14.1357 3.92238 13.1066C3.02917 12.2717 2.00005 11.262 1.20393 10.0192C0.291308 8.62118 -0.0970418 7.14545 0.0388805 5.63089C0.19422 3.70856 1.00975 2.19399 2.42723 1.10662C3.30102 0.427004 4.33014 0.0580723 5.47577 -0.000180137C7.2816 -0.0972675 8.77674 0.582344 10.0195 2.05807C10.9709 0.951276 12.0389 0.310499 13.2816 0.0969073C14.9903 -0.194355 16.5243 0.213412 17.8447 1.28137C18.9127 2.17458 19.6117 3.37846 19.903 4.85419C19.9224 4.91244 19.9224 4.97069 19.9418 5.02895C19.9612 5.10662 19.9612 5.18429 19.9806 5.26196L20 5.43671C20 5.47555 20 5.51438 20 5.55322V6.81535C20 6.83477 20 6.83477 20 6.85419C20 6.89302 19.9806 6.93186 19.9806 6.97069C19.9806 7.00953 19.9612 7.02895 19.9612 7.06778C19.903 7.4173 19.8253 7.78623 19.7088 8.15516C19.3593 9.26196 18.7185 10.3105 17.7282 11.4561C16.7185 12.6212 15.534 13.6309 14.4078 14.6212L14.136 14.8542C13.7865 15.1649 13.4369 15.4561 13.068 15.7668C12.7185 16.0775 12.369 16.3688 12.0195 16.6794C11.7088 16.9319 11.3981 17.2037 11.1068 17.4561C10.7379 17.7668 10.3884 17.9222 10 17.9222ZM5.78645 0.582344C5.68937 0.582344 5.6117 0.582344 5.51461 0.582344C4.48548 0.621179 3.57286 0.951276 2.77674 1.55322C1.49519 2.52409 0.757327 3.92215 0.621405 5.66972C0.485482 7.04836 0.854414 8.40759 1.68937 9.70856C2.46606 10.9124 3.45636 11.8833 4.31073 12.6794C5.43694 13.7086 6.60199 14.6988 7.7282 15.6697L7.86412 15.7862C8.11655 15.9998 8.34956 16.194 8.60199 16.4076C8.85441 16.6212 9.08742 16.8348 9.33985 17.0484C9.78645 17.4367 10.2525 17.4173 10.6991 17.0484C11.0098 16.7765 11.3204 16.5241 11.6311 16.2522C11.9806 15.961 12.3301 15.6503 12.6797 15.3396C13.0292 15.0289 13.3981 14.7377 13.7476 14.427L14.0195 14.194C15.1457 13.2231 16.2913 12.2134 17.2816 11.0872C18.2331 10.0192 18.835 9.02895 19.1457 7.99982C19.2428 7.66972 19.3204 7.32021 19.3787 6.99011C19.3787 6.95128 19.3981 6.91244 19.3981 6.87361C19.3981 6.85419 19.3981 6.81535 19.4175 6.79594V5.47555C19.4175 5.45613 19.4175 5.45613 19.4175 5.43671L19.3981 5.32021C19.3787 5.24254 19.3787 5.16487 19.3593 5.10662C19.3398 5.04836 19.3399 4.99011 19.3204 4.93186C19.0486 3.61147 18.4272 2.52409 17.4564 1.70856C16.2719 0.737684 14.8932 0.388169 13.3593 0.640597C12.1942 0.834771 11.2039 1.47555 10.3107 2.58234L10.2913 2.60176C10.2719 2.62118 10.2719 2.62118 10.2525 2.6406C10.2331 2.66001 10.2136 2.67943 10.2136 2.69885C10.0971 2.81535 9.92238 2.81535 9.80587 2.69885C9.78645 2.67943 9.74762 2.62118 9.70878 2.56293C8.6214 1.24254 7.33985 0.582344 5.78645 0.582344ZM10.0389 16.5435C9.92238 16.5435 9.84471 16.4853 9.76704 16.427C9.47577 16.1746 9.20393 15.9416 8.91267 15.6891C8.66024 15.4755 8.42723 15.262 8.1748 15.0678L7.57286 14.5241C6.79616 13.8445 5.98063 13.1455 5.18451 12.427C4.29131 11.6309 3.26218 10.6406 2.44665 9.43671C1.74762 8.38817 1.3981 7.33963 1.3981 6.25225C1.41752 4.32992 2.13597 2.95128 3.57286 2.01924C4.15539 1.65031 4.79616 1.43671 5.51461 1.4173C5.57286 1.4173 5.63111 1.4173 5.66995 1.39788C5.68937 1.39788 5.70878 1.39788 5.7282 1.39788H5.76704C6.79616 1.4173 7.66995 1.72798 8.40781 2.36875C8.835 2.73768 9.20393 3.18429 9.55344 3.72798C9.7282 3.99982 9.90296 4.03865 10 4.03865C10.2136 4.05807 10.369 3.96098 10.5049 3.78623L10.5243 3.74739C10.7185 3.43671 10.9321 3.12603 11.2039 2.83477C12.0777 1.8639 13.1068 1.37846 14.2525 1.39788C15.8641 1.4173 17.1263 2.13574 17.9806 3.5338C18.3884 4.21341 18.602 4.97069 18.6602 5.8639C18.7379 7.24254 18.2913 8.54351 17.3204 9.84448C16.4272 11.0678 15.3204 12.0775 14.2719 12.9901C13.903 13.3202 13.534 13.6309 13.1651 13.961C12.8156 14.2522 12.4855 14.5435 12.1554 14.8348L12.136 14.8542C11.534 15.3785 10.9127 15.9027 10.3107 16.427C10.2136 16.5047 10.1166 16.5435 10.0389 16.5435ZM5.76704 1.9804C5.70878 1.99982 5.63111 1.99982 5.55344 1.99982C4.97092 2.01924 4.40781 2.19399 3.92238 2.50467C2.66024 3.32021 2.01946 4.54351 2.01946 6.25225C2.01946 7.22312 2.33014 8.15516 2.97092 9.10662C3.74762 10.2522 4.73791 11.2037 5.6117 11.9804C6.38839 12.6794 7.20393 13.3785 8.00005 14.0581L8.6214 14.6018C8.85441 14.8154 9.10684 15.0289 9.33985 15.2231C9.59228 15.4367 9.82529 15.6503 10.0777 15.8639C10.6408 15.3785 11.2039 14.893 11.7865 14.3882C12.136 14.0775 12.4661 13.7862 12.8156 13.495C13.1845 13.1843 13.5534 12.8542 13.9224 12.5241C14.9127 11.6503 16 10.6794 16.8738 9.49497C17.7476 8.3105 18.1554 7.14545 18.0971 5.90273C18.0389 5.10662 17.8447 4.427 17.4952 3.84448C16.7573 2.62118 15.6699 1.99982 14.2719 1.9804C13.301 1.9804 12.4078 2.38817 11.6505 3.22312C11.4175 3.49497 11.2233 3.78623 11.0292 4.05807L10.9903 4.09691C10.7379 4.46584 10.3884 4.6406 9.98063 4.60176C9.63111 4.58234 9.32043 4.38817 9.06801 4.01924C8.75733 3.51438 8.42723 3.10662 8.03888 2.77652C7.3981 2.25225 6.64082 1.9804 5.76704 1.9804Z" fill="#0B132B"/>
</g>
<defs>
<clipPath id="clip0_37_6123">
<rect width="20" height="17.9223" fill="white"/>
</clipPath>
</defs>
</svg>
