<svg width="129" height="129" viewBox="0 0 129 129" fill="none" xmlns="http://www.w3.org/2000/svg">
<g clip-path="url(#clip0_26_12990)">
<path d="M125.869 0.500706C123.74 -0.501236 121.736 0.25022 120.609 0.751191L116.476 2.37935C79.1534 17.2832 41.9563 32.1871 4.75922 46.9658C3.00583 47.7172 1.12718 48.7192 0.125243 50.9735C0 51.224 0 51.4745 0 51.725V53.4784C0 53.7289 0 53.9794 0.125243 54.1046C1.00194 56.359 2.75534 57.4861 4.25825 58.2376C12.399 62.1201 20.4146 66.1279 28.5553 70.0104C35.1932 73.2667 41.8311 76.523 48.5942 79.6541C48.9699 79.9046 49.2204 80.0298 49.4709 80.5308C52.7272 87.1687 55.8583 93.8065 59.1146 100.319C63.1223 108.46 67.0049 116.726 71.0126 124.867C71.6388 126.119 72.766 127.998 75.0204 128.874C75.2709 129 75.3961 129 75.6466 129H77.4C77.6505 129 77.901 129 78.1515 128.874C80.4058 127.873 81.533 125.994 82.1592 124.241C93.932 94.558 105.83 65.0007 117.728 35.3182L125.994 14.7784C126.871 12.524 127.873 10.1444 128.75 7.89003C129.751 4.8842 128.624 1.75313 125.869 0.500706ZM108.335 28.5551L75.8971 109.712L69.6349 96.6871C66.3786 90.1745 63.1223 83.5366 59.866 76.8988C74.2689 62.4959 88.6719 48.0929 103.2 33.69L108.335 28.5551ZM100.445 20.6648C84.2883 36.8211 68.132 52.9774 52.101 69.1337C42.833 64.625 33.565 60.1162 24.2971 55.6075L19.2874 53.2279L100.445 20.6648Z" fill="#0B132B"/>
</g>
<defs>
<clipPath id="clip0_26_12990">
<rect width="129" height="129" fill="white"/>
</clipPath>
</defs>
</svg>
