<svg width="10" height="8" viewBox="0 0 10 8" fill="none" xmlns="http://www.w3.org/2000/svg">
<path d="M8.74483 0.490234C8.35268 0.490234 8.09777 0.705921 7.96052 0.843176L6.88209 1.92161C5.78405 3.00004 4.70562 4.07847 3.62719 5.17651C3.60758 5.19612 3.60758 5.19612 3.60758 5.19612L3.58797 5.17651C3.17621 4.76474 2.76444 4.35298 2.35268 3.94122L1.9213 3.50984C1.70562 3.29416 1.48993 3.17651 1.23503 3.1569C0.823266 3.13729 0.450717 3.35298 0.274246 3.72553C0.0977755 4.11769 0.176207 4.52945 0.50954 4.86278C1.29385 5.66671 2.09778 6.45102 2.86248 7.21573C3.09778 7.45102 3.35268 7.54906 3.60758 7.54906C3.86248 7.54906 4.11738 7.43141 4.35268 7.19612L9.35268 2.23533C9.50954 2.07847 9.72523 1.82357 9.70562 1.45102C9.70562 0.921607 9.29385 0.490234 8.74483 0.490234Z" fill="#0B132B"/>
</svg>
