<svg width="9" height="10" viewBox="0 0 9 10" fill="none" xmlns="http://www.w3.org/2000/svg">
<path d="M5.55777 5.00004L8.34623 2.21158C8.69238 1.86542 8.69238 1.32696 8.34623 0.980807C8.00007 0.634653 7.46161 0.634653 7.11546 0.980807L4.34623 3.76927L1.55777 0.980807C1.21161 0.634653 0.673152 0.634653 0.326998 0.980807C-0.0191557 1.32696 -0.0191557 1.86542 0.326998 2.21158L3.11546 5.00004L0.326998 7.7885C-0.0191557 8.13465 -0.0191557 8.67311 0.326998 9.01927C0.673152 9.36542 1.21161 9.36542 1.55777 9.01927L4.34623 6.23081L7.13469 9.01927C7.30777 9.19235 7.51931 9.26927 7.75007 9.26927C7.98084 9.26927 8.19238 9.19235 8.36546 9.01927C8.71161 8.67311 8.71161 8.13465 8.36546 7.7885L5.55777 5.00004Z" fill="red"/>
</svg>
