<svg width="34" height="30" viewBox="0 0 34 30" fill="none" xmlns="http://www.w3.org/2000/svg">
<path d="M26.4579 1.00241C22.9367 0.0711918 19.9685 1.11881 17.5822 3.88336C16.9711 4.58177 16.9711 4.58177 16.3018 3.79606C13.8574 0.886006 10.1034 -0.103411 6.55313 1.29341C3.00287 2.69024 0.878532 6.095 0.878532 10.5183C0.820331 12.0606 1.22774 13.632 1.98435 15.1162C2.91557 17.0077 4.25419 18.6082 5.73832 20.0923C8.88117 23.177 12.315 25.9415 15.6325 28.7934C16.5637 29.5791 17.4076 29.55 18.397 28.7352C19.5029 27.804 20.6087 26.8728 21.6854 25.9124C24.4499 23.4971 27.3309 21.2273 29.7462 18.4336C32.3362 15.4072 33.733 12.0024 32.8309 7.98653C32.0743 4.43627 30.0372 1.96273 26.4579 1.00241Z" fill="white"/>
</svg>
