<svg width="635" height="214" viewBox="0 0 635 214" fill="none" xmlns="http://www.w3.org/2000/svg">
<path d="M320.065 49.8351C319.535 49.8351 319.004 49.5698 318.739 49.0923C317.837 47.7127 316.829 46.3332 315.714 45.1128C315.131 44.4761 315.131 43.468 315.821 42.8843C316.404 42.3538 317.306 42.3007 317.943 42.8313C318.049 42.0354 318.686 41.4517 319.482 41.3987C320.384 41.3987 321.073 42.0885 321.127 42.9374C321.18 44.5822 321.392 46.2801 321.71 47.925C321.869 48.6678 321.445 49.4637 320.755 49.729C320.437 49.8351 320.225 49.8351 320.065 49.8351Z" fill="#00AEEF"/>
<path d="M152.716 214C151.655 214 150.541 214 149.48 213.947C146.986 213.894 144.492 213.788 141.998 213.682C141.096 213.629 140.46 212.886 140.513 211.984C140.566 211.082 141.309 210.445 142.211 210.498C144.651 210.657 147.145 210.71 149.586 210.763C150.647 210.763 151.708 210.816 152.769 210.816C153.671 210.816 154.361 211.559 154.361 212.408C154.308 213.257 153.565 214 152.716 214ZM163.328 213.682C162.479 213.682 161.79 213.045 161.736 212.196C161.683 211.294 162.373 210.551 163.222 210.498C166.83 210.286 170.385 209.914 173.675 209.437C174.524 209.331 175.373 209.914 175.479 210.763C175.585 211.612 175.001 212.461 174.152 212.567C170.757 213.045 167.149 213.416 163.434 213.629C163.434 213.682 163.381 213.682 163.328 213.682ZM262.762 212.833C259.207 212.833 255.599 212.727 252.044 212.514C251.142 212.461 250.505 211.718 250.558 210.816C250.611 209.914 251.354 209.278 252.256 209.331C255.758 209.543 259.313 209.649 262.815 209.649C263.717 209.649 264.406 210.339 264.406 211.241C264.353 212.143 263.664 212.833 262.762 212.833ZM131.44 212.78C131.387 212.78 131.333 212.78 131.28 212.78C127.725 212.408 124.17 211.931 120.669 211.4C119.82 211.294 119.183 210.445 119.342 209.596C119.448 208.747 120.297 208.11 121.146 208.27C124.595 208.8 128.15 209.225 131.652 209.596C132.501 209.702 133.137 210.445 133.084 211.347C132.978 212.196 132.289 212.78 131.44 212.78ZM273.426 212.567C272.578 212.567 271.888 211.931 271.835 211.082C271.782 210.18 272.471 209.437 273.32 209.384C276.822 209.172 280.377 208.906 283.826 208.535C284.675 208.429 285.471 209.065 285.577 209.967C285.683 210.816 285.046 211.612 284.144 211.718C280.589 212.09 276.981 212.408 273.426 212.62C273.48 212.567 273.426 212.567 273.426 212.567ZM241.538 211.612C241.485 211.612 241.432 211.612 241.379 211.612C237.824 211.188 234.269 210.657 230.767 210.074C229.918 209.914 229.334 209.119 229.493 208.217C229.652 207.368 230.448 206.784 231.35 206.943C234.799 207.527 238.301 208.057 241.803 208.482C242.652 208.588 243.289 209.384 243.183 210.233C243.023 210.976 242.334 211.612 241.538 211.612ZM184.393 210.551C183.703 210.551 183.013 210.074 182.854 209.331C182.642 208.482 183.172 207.633 184.021 207.368C187.523 206.466 190.813 205.351 193.944 204.131C194.739 203.813 195.695 204.184 196.013 204.98C196.331 205.776 195.96 206.731 195.164 207.049C191.927 208.376 188.478 209.49 184.87 210.445C184.658 210.551 184.499 210.551 184.393 210.551ZM294.544 210.233C293.801 210.233 293.111 209.702 292.952 208.906C292.793 208.057 293.377 207.208 294.279 207.049C297.728 206.466 301.23 205.776 304.625 204.98C305.474 204.768 306.323 205.298 306.536 206.2C306.748 207.049 306.217 207.898 305.315 208.11C301.866 208.906 298.311 209.596 294.756 210.18C294.756 210.233 294.65 210.233 294.544 210.233ZM110.428 209.596C110.322 209.596 110.216 209.596 110.11 209.543C106.608 208.853 103.106 208.057 99.657 207.155C98.8081 206.943 98.2775 206.094 98.4897 205.245C98.702 204.396 99.5509 203.866 100.4 204.078C103.796 204.927 107.245 205.723 110.693 206.413C111.542 206.572 112.126 207.421 111.914 208.27C111.808 209.065 111.171 209.596 110.428 209.596ZM220.579 207.898C220.473 207.898 220.314 207.898 220.208 207.845C218.775 207.527 217.29 207.155 215.857 206.731C213.788 206.2 211.771 205.617 209.808 204.98C208.959 204.715 208.482 203.813 208.747 202.964C209.012 202.115 209.914 201.637 210.763 201.902C212.673 202.486 214.637 203.07 216.653 203.6C218.086 203.972 219.518 204.343 220.898 204.662C221.747 204.874 222.277 205.723 222.065 206.572C221.959 207.421 221.269 207.898 220.579 207.898ZM315.29 205.51C314.601 205.51 313.964 205.033 313.752 204.343C313.486 203.494 314.017 202.592 314.813 202.38C318.209 201.425 321.551 200.311 324.841 199.143C325.69 198.825 326.592 199.303 326.857 200.098C327.176 200.947 326.698 201.849 325.902 202.115C322.559 203.282 319.111 204.396 315.662 205.404C315.609 205.457 315.449 205.51 315.29 205.51ZM89.788 204.396C89.6288 204.396 89.4696 204.396 89.3105 204.343C85.9147 203.335 82.4658 202.168 79.1231 201C78.2741 200.682 77.8496 199.78 78.168 198.984C78.4864 198.135 79.3884 197.711 80.1843 198.029C83.4739 199.196 86.8697 200.311 90.2125 201.319C91.0614 201.584 91.539 202.486 91.2737 203.282C91.1145 203.972 90.4778 204.396 89.788 204.396ZM203.972 202.433C203.441 202.433 202.911 202.168 202.592 201.69C202.115 200.947 202.38 199.939 203.123 199.515C206.041 197.711 208.8 195.588 211.241 193.201C211.878 192.617 212.886 192.617 213.469 193.254C214.053 193.891 214.053 194.899 213.416 195.482C210.763 198.029 207.845 200.258 204.768 202.221C204.555 202.38 204.29 202.433 203.972 202.433ZM200.311 201.478C200.098 201.478 199.886 201.425 199.674 201.372C196.172 199.886 192.935 198.241 189.964 196.543C189.221 196.119 188.956 195.111 189.38 194.368C189.805 193.625 190.813 193.36 191.556 193.784C194.368 195.429 197.499 197.021 200.894 198.454C201.69 198.772 202.062 199.727 201.743 200.523C201.531 201.107 200.894 201.478 200.311 201.478ZM335.347 198.347C334.71 198.347 334.126 197.976 333.861 197.392C333.543 196.597 333.914 195.641 334.71 195.323C336.249 194.686 337.787 193.997 339.326 193.254C340.971 192.511 342.669 191.662 344.261 190.866C345.057 190.495 346.012 190.813 346.383 191.556C346.755 192.352 346.436 193.307 345.693 193.678C344.048 194.527 342.351 195.323 340.653 196.119C339.114 196.809 337.522 197.552 335.93 198.188C335.771 198.347 335.559 198.347 335.347 198.347ZM69.7316 197.286C69.5193 197.286 69.3071 197.233 69.1479 197.18C65.8582 195.801 62.5685 194.368 59.3319 192.882C58.536 192.511 58.2177 191.556 58.5891 190.76C58.9605 189.964 59.9156 189.646 60.7115 190.017C63.895 191.503 67.1317 192.935 70.3683 194.262C71.1642 194.58 71.5886 195.535 71.2172 196.331C70.9519 196.915 70.3683 197.286 69.7316 197.286ZM182.164 190.548C181.793 190.548 181.422 190.442 181.103 190.176C178.238 187.683 175.744 184.923 173.728 182.005C173.25 181.262 173.41 180.307 174.099 179.777C174.842 179.299 175.797 179.458 176.328 180.148C178.185 182.854 180.52 185.401 183.172 187.736C183.809 188.319 183.915 189.327 183.332 189.964C183.013 190.336 182.589 190.548 182.164 190.548ZM354.395 188.797C353.864 188.797 353.334 188.531 353.016 188.001C352.591 187.258 352.803 186.25 353.599 185.825C356.624 184.075 359.648 182.164 362.513 180.201C363.256 179.724 364.211 179.883 364.742 180.626C365.219 181.368 365.06 182.324 364.317 182.854C361.346 184.817 358.268 186.781 355.191 188.585C354.926 188.744 354.66 188.797 354.395 188.797ZM50.471 188.266C50.2057 188.266 49.9404 188.213 49.7282 188.054C46.5977 186.356 43.4141 184.605 40.3897 182.801C39.6469 182.324 39.3816 181.368 39.8591 180.626C40.2836 179.883 41.2917 179.618 42.0346 180.095C45.0059 181.899 48.1364 183.65 51.2138 185.295C52.0097 185.719 52.275 186.674 51.8506 187.47C51.5853 187.948 51.0547 188.266 50.471 188.266ZM219.2 187.789C218.881 187.789 218.616 187.683 218.298 187.523C217.555 187.046 217.343 186.038 217.873 185.295C219.837 182.324 221.322 179.246 222.383 176.169C222.649 175.32 223.551 174.895 224.4 175.161C225.249 175.426 225.673 176.328 225.408 177.177C224.293 180.573 222.649 183.915 220.526 187.099C220.208 187.523 219.73 187.789 219.2 187.789ZM372.064 176.965C371.586 176.965 371.109 176.752 370.79 176.328C370.26 175.638 370.366 174.63 371.109 174.099C373.868 171.977 376.627 169.695 379.28 167.414C379.917 166.83 380.925 166.883 381.508 167.573C382.092 168.21 382.039 169.218 381.349 169.802C378.643 172.136 375.884 174.418 373.019 176.593C372.754 176.858 372.382 176.965 372.064 176.965ZM170.544 173.091C169.855 173.091 169.218 172.614 169.006 171.924C168.21 169.059 167.838 166.087 167.838 163.116C167.838 162.373 167.891 161.63 167.891 160.888C167.944 159.986 168.687 159.349 169.589 159.402C170.491 159.455 171.128 160.198 171.075 161.1C171.022 161.79 171.022 162.426 171.022 163.116C171.022 165.822 171.393 168.475 172.083 171.128C172.295 171.977 171.818 172.826 170.969 173.091C170.81 173.038 170.65 173.091 170.544 173.091ZM225.62 167.838C224.771 167.838 224.028 167.149 224.028 166.247C224.028 163.965 223.71 161.683 223.126 159.508C222.861 158.5 222.489 157.492 222.065 156.484C221.694 155.688 222.118 154.733 222.914 154.414C223.71 154.043 224.665 154.414 224.983 155.263C225.461 156.378 225.885 157.545 226.204 158.712C226.84 161.153 227.159 163.7 227.212 166.247C227.212 167.096 226.522 167.785 225.62 167.838ZM388.088 162.957C387.663 162.957 387.292 162.798 386.974 162.479C386.337 161.843 386.337 160.835 386.974 160.251C389.467 157.757 391.908 155.21 394.19 152.557C394.773 151.921 395.781 151.814 396.418 152.398C397.055 152.982 397.161 153.99 396.577 154.627C394.243 157.28 391.749 159.933 389.202 162.479C388.884 162.798 388.459 162.957 388.088 162.957ZM172.136 152.292C171.924 152.292 171.659 152.239 171.446 152.133C170.65 151.761 170.332 150.806 170.704 150.01C172.401 146.508 174.789 143.537 177.707 141.203C178.397 140.672 179.405 140.778 179.936 141.468C180.466 142.158 180.36 143.166 179.671 143.696C177.071 145.766 175.001 148.312 173.516 151.39C173.303 151.974 172.72 152.292 172.136 152.292ZM217.502 148.737C217.077 148.737 216.706 148.578 216.388 148.259C214 145.925 211.241 143.909 208.163 142.37C207.368 141.945 207.049 140.99 207.474 140.247C207.898 139.452 208.853 139.133 209.596 139.558C212.992 141.256 216.016 143.484 218.616 146.031C219.253 146.668 219.253 147.676 218.616 148.259C218.351 148.578 217.926 148.737 217.502 148.737ZM402.148 146.986C401.83 146.986 401.459 146.88 401.193 146.668C400.504 146.137 400.344 145.129 400.875 144.439C402.997 141.627 405.067 138.762 407.03 135.844C407.507 135.101 408.516 134.888 409.258 135.419C410.001 135.897 410.214 136.905 409.683 137.648C407.72 140.619 405.597 143.537 403.422 146.402C403.104 146.774 402.626 146.986 402.148 146.986ZM188.266 139.505C187.523 139.505 186.887 139.027 186.727 138.284C186.515 137.435 187.046 136.586 187.948 136.374C191.45 135.578 195.27 135.472 199.143 136.109C199.992 136.268 200.629 137.064 200.47 137.913C200.311 138.762 199.515 139.345 198.666 139.239C195.217 138.709 191.821 138.762 188.691 139.505C188.478 139.505 188.372 139.505 188.266 139.505ZM413.928 129.264C413.662 129.264 413.397 129.211 413.132 129.052C412.389 128.627 412.124 127.672 412.548 126.877C414.299 123.799 415.891 120.669 417.376 117.538C417.748 116.742 418.703 116.424 419.499 116.795C420.295 117.167 420.613 118.122 420.242 118.918C418.703 122.154 417.058 125.338 415.307 128.468C414.989 128.946 414.458 129.264 413.928 129.264ZM423.001 110.004C422.789 110.004 422.629 109.951 422.417 109.898C421.621 109.579 421.197 108.677 421.515 107.828C422.789 104.539 423.903 101.143 424.858 97.853C425.123 97.0041 425.972 96.5266 426.821 96.7388C427.67 97.0041 428.148 97.853 427.935 98.702C426.98 102.098 425.813 105.547 424.54 108.942C424.221 109.632 423.638 110.004 423.001 110.004ZM428.837 89.5758C428.731 89.5758 428.625 89.5758 428.519 89.5227C427.67 89.3635 427.086 88.5146 427.246 87.6656C427.882 84.1637 428.36 80.6618 428.625 77.266C428.678 76.364 429.474 75.7273 430.323 75.7803C431.225 75.8334 431.862 76.6293 431.809 77.4782C431.543 80.9802 431.066 84.5882 430.376 88.1962C430.27 89.0452 429.58 89.5758 428.837 89.5758ZM430.429 68.352C429.58 68.352 428.89 67.6623 428.837 66.8133C428.678 63.3114 428.307 59.8095 427.723 56.4667C427.564 55.6178 428.148 54.7688 428.997 54.6096C429.845 54.4505 430.694 55.0341 430.854 55.8831C431.49 59.385 431.862 62.993 432.021 66.6541C432.074 67.5561 431.384 68.299 430.482 68.299C430.482 68.352 430.482 68.352 430.429 68.352ZM426.715 47.4997C426.025 47.4997 425.442 47.0752 425.229 46.4385C424.646 44.7406 424.009 42.9896 423.266 41.3448C422.629 39.8591 421.94 38.3735 421.144 36.8878C420.719 36.0919 421.038 35.1369 421.78 34.7124C422.576 34.2879 423.531 34.6063 423.956 35.3491C424.752 36.8878 425.548 38.4796 426.184 40.0183C426.927 41.7693 427.617 43.5733 428.201 45.3773C428.466 46.2263 428.041 47.1283 427.193 47.3936C427.033 47.4466 426.874 47.4997 426.715 47.4997ZM320.968 34.0226C320.808 34.0226 320.649 34.0226 320.49 33.9696C319.641 33.7043 319.217 32.8022 319.482 31.9533C320.596 28.5575 322.241 25.2148 324.363 22.0312C324.841 21.2884 325.849 21.1292 326.592 21.6067C327.335 22.0842 327.494 23.0924 327.016 23.8352C325.053 26.7535 323.514 29.8309 322.506 32.9614C322.241 33.5981 321.657 34.0226 320.968 34.0226ZM416.74 28.7697C416.262 28.7697 415.785 28.5575 415.466 28.133C413.397 25.427 411.009 22.8271 408.516 20.4394C407.879 19.8558 407.826 18.8476 408.463 18.2109C409.046 17.5742 410.054 17.5742 410.691 18.1579C413.344 20.6516 415.785 23.3577 417.96 26.2229C418.491 26.9127 418.385 27.9208 417.642 28.4514C417.43 28.6636 417.111 28.7697 416.74 28.7697ZM332.641 16.513C332.216 16.513 331.792 16.3538 331.473 15.9824C330.89 15.3457 330.943 14.3376 331.579 13.7539C334.232 11.3132 337.204 9.0847 340.387 7.22763C341.13 6.80315 342.138 7.01539 342.563 7.75822C342.987 8.50105 342.775 9.50918 342.032 9.93365C339.061 11.6846 336.249 13.7539 333.755 16.0885C333.384 16.3538 333.012 16.513 332.641 16.513ZM401.406 14.1784C401.087 14.1784 400.769 14.0723 400.504 13.9131C397.638 11.9499 394.614 10.1989 391.537 8.71329C390.741 8.34187 390.422 7.3868 390.794 6.59091C391.165 5.79502 392.12 5.47667 392.916 5.84808C396.153 7.3868 399.336 9.24388 402.361 11.3132C403.104 11.7907 403.263 12.7989 402.785 13.5417C402.361 13.9131 401.883 14.1784 401.406 14.1784ZM350.787 5.6889C350.15 5.6889 349.514 5.26443 349.301 4.62772C349.036 3.77877 349.461 2.87676 350.309 2.61146C353.811 1.39109 357.419 0.595203 360.974 0.170728C361.876 0.0646095 362.619 0.701322 362.725 1.55027C362.831 2.39922 362.195 3.19511 361.346 3.30123C358.003 3.67265 354.607 4.46854 351.318 5.58278C351.158 5.63584 350.946 5.6889 350.787 5.6889ZM382.198 5.10525C382.039 5.10525 381.933 5.10525 381.774 5.05219C378.431 4.09712 374.982 3.46041 371.586 3.19511C370.684 3.14205 370.048 2.34616 370.154 1.44415C370.207 0.542144 371.003 -0.0945686 371.905 0.0115502C375.513 0.329906 379.121 1.01968 382.623 1.97475C383.472 2.18698 383.949 3.08899 383.737 3.93794C383.578 4.68078 382.941 5.10525 382.198 5.10525Z" fill="#00AEEF"/>
<path d="M480.942 208.004C477.44 208.004 473.885 207.951 470.436 207.845C469.534 207.792 468.844 207.102 468.897 206.2C468.95 205.298 469.64 204.608 470.542 204.661C473.991 204.768 477.493 204.821 480.995 204.821C481.897 204.821 482.586 205.563 482.586 206.412C482.533 207.314 481.844 208.004 480.942 208.004ZM491.394 207.898C490.545 207.898 489.802 207.208 489.802 206.359C489.802 205.457 490.492 204.767 491.341 204.714C494.79 204.608 498.292 204.502 501.741 204.29C502.643 204.237 503.386 204.927 503.439 205.776C503.492 206.678 502.802 207.42 501.953 207.474C498.504 207.686 494.949 207.792 491.394 207.898C491.447 207.898 491.447 207.898 491.394 207.898ZM459.983 207.367C459.93 207.367 459.93 207.367 459.877 207.367C456.375 207.155 452.873 206.89 449.371 206.572C448.469 206.518 447.833 205.723 447.939 204.821C447.992 203.919 448.788 203.282 449.69 203.388C453.138 203.706 456.64 203.972 460.089 204.131C460.991 204.184 461.628 204.927 461.575 205.829C461.522 206.678 460.832 207.367 459.983 207.367ZM512.353 206.784C511.557 206.784 510.814 206.147 510.761 205.298C510.708 204.396 511.345 203.653 512.193 203.6C515.642 203.335 519.144 202.963 522.593 202.592C523.442 202.486 524.238 203.123 524.344 203.972C524.45 204.821 523.814 205.616 522.965 205.723C519.516 206.094 515.961 206.465 512.512 206.731C512.406 206.731 512.353 206.784 512.353 206.784ZM439.131 205.51C439.078 205.51 439.025 205.51 438.919 205.51C435.47 205.086 431.968 204.661 428.466 204.131C427.617 204.025 426.98 203.176 427.139 202.327C427.245 201.478 428.094 200.841 428.943 201C432.392 201.478 435.841 201.955 439.29 202.327C440.139 202.433 440.776 203.229 440.669 204.078C440.616 204.927 439.927 205.51 439.131 205.51ZM533.152 204.396C532.356 204.396 531.666 203.812 531.56 203.017C531.454 202.168 532.038 201.319 532.887 201.213C536.335 200.735 539.784 200.204 543.18 199.568C544.029 199.409 544.878 199.992 545.037 200.841C545.196 201.69 544.613 202.539 543.764 202.698C540.315 203.282 536.813 203.865 533.364 204.343C533.311 204.396 533.205 204.396 533.152 204.396ZM418.438 202.486C418.331 202.486 418.278 202.486 418.172 202.486C414.723 201.902 411.222 201.213 407.826 200.523C406.977 200.364 406.393 199.515 406.605 198.666C406.765 197.817 407.613 197.233 408.462 197.445C411.858 198.135 415.307 198.772 418.703 199.408C419.552 199.568 420.136 200.364 419.976 201.266C419.87 201.955 419.18 202.486 418.438 202.486ZM553.792 200.841C553.049 200.841 552.412 200.311 552.253 199.568C552.094 198.719 552.625 197.87 553.474 197.711C556.869 197.021 560.318 196.278 563.661 195.482C564.51 195.27 565.359 195.8 565.571 196.649C565.783 197.498 565.253 198.347 564.404 198.56C561.008 199.355 557.559 200.098 554.11 200.841C554.004 200.841 553.898 200.841 553.792 200.841ZM397.904 198.294C397.798 198.294 397.638 198.294 397.532 198.241C394.136 197.445 390.688 196.596 387.345 195.694C386.496 195.482 385.965 194.58 386.231 193.731C386.443 192.882 387.345 192.352 388.194 192.617C391.537 193.519 394.932 194.368 398.328 195.164C399.177 195.376 399.708 196.225 399.495 197.074C399.283 197.817 398.593 198.294 397.904 198.294ZM574.167 196.066C573.477 196.066 572.84 195.588 572.628 194.898C572.416 194.049 572.893 193.201 573.742 192.935C577.085 192.033 580.481 191.078 583.771 190.07C584.62 189.805 585.521 190.282 585.734 191.131C585.999 191.98 585.521 192.882 584.673 193.094C581.33 194.103 577.934 195.058 574.538 195.96C574.432 196.013 574.326 196.066 574.167 196.066ZM377.635 192.935C377.476 192.935 377.317 192.935 377.157 192.882C373.815 191.874 370.419 190.813 367.129 189.752C366.28 189.486 365.856 188.584 366.121 187.735C366.386 186.886 367.288 186.462 368.137 186.727C371.427 187.788 374.77 188.85 378.059 189.858C378.908 190.123 379.386 190.972 379.121 191.821C378.961 192.511 378.325 192.935 377.635 192.935ZM357.738 186.409C357.579 186.409 357.366 186.356 357.207 186.303C353.917 185.082 350.628 183.862 347.391 182.536C346.595 182.217 346.171 181.262 346.489 180.466C346.807 179.67 347.763 179.246 348.558 179.564C351.742 180.838 355.032 182.111 358.321 183.278C359.17 183.597 359.595 184.499 359.276 185.295C359.011 185.984 358.427 186.409 357.738 186.409ZM338.318 178.609C338.106 178.609 337.893 178.556 337.681 178.503C334.445 177.124 331.261 175.638 328.078 174.152C327.282 173.781 326.963 172.826 327.335 172.03C327.706 171.234 328.661 170.916 329.457 171.287C332.588 172.773 335.771 174.205 338.955 175.585C339.751 175.956 340.122 176.858 339.804 177.654C339.485 178.291 338.902 178.609 338.318 178.609ZM319.376 169.695C319.11 169.695 318.898 169.642 318.633 169.536C315.502 167.944 312.372 166.246 309.348 164.602C308.605 164.177 308.286 163.222 308.711 162.426C309.135 161.683 310.09 161.365 310.886 161.789C313.911 163.487 316.988 165.132 320.066 166.724C320.861 167.148 321.18 168.104 320.755 168.846C320.543 169.377 319.959 169.695 319.376 169.695ZM301.07 159.508C300.805 159.508 300.487 159.455 300.274 159.296C299.054 158.553 297.834 157.81 296.613 157.067C294.809 155.953 293.005 154.839 291.307 153.724C290.565 153.247 290.352 152.239 290.83 151.496C291.307 150.753 292.316 150.541 293.058 151.018C294.703 152.08 296.507 153.194 298.258 154.308C299.479 155.051 300.646 155.794 301.866 156.537C302.609 157.014 302.874 157.969 302.397 158.712C302.131 159.243 301.601 159.508 301.07 159.508ZM283.561 148.047C283.242 148.047 282.924 147.941 282.606 147.729C279.634 145.606 276.822 143.431 274.222 141.309C273.533 140.778 273.426 139.77 274.01 139.08C274.541 138.39 275.549 138.284 276.239 138.868C278.785 140.937 281.598 143.059 284.463 145.182C285.152 145.712 285.312 146.668 284.834 147.41C284.516 147.835 284.038 148.047 283.561 148.047ZM267.378 134.782C267.006 134.782 266.582 134.623 266.263 134.358C263.61 131.864 261.117 129.264 258.888 126.717C258.304 126.08 258.358 125.072 259.047 124.489C259.684 123.905 260.692 123.958 261.276 124.648C263.451 127.142 265.892 129.635 268.439 132.076C269.076 132.66 269.129 133.668 268.492 134.305C268.227 134.623 267.802 134.782 267.378 134.782ZM253.635 119.024C253.158 119.024 252.627 118.811 252.309 118.334C250.239 115.362 248.382 112.285 246.791 109.208C246.366 108.412 246.684 107.457 247.48 107.085C248.276 106.661 249.231 106.979 249.603 107.775C251.141 110.746 252.945 113.665 254.909 116.53C255.386 117.273 255.227 118.228 254.537 118.758C254.272 118.917 253.954 119.024 253.635 119.024ZM244.138 100.453C243.448 100.453 242.864 100.028 242.599 99.3386C241.485 95.9428 240.689 92.3878 240.158 88.8859C240.052 88.0369 240.636 87.188 241.485 87.0819C242.334 86.9757 243.183 87.5594 243.289 88.4084C243.766 91.7511 244.562 95.0938 245.623 98.3305C245.889 99.1794 245.464 100.081 244.615 100.347C244.456 100.4 244.297 100.453 244.138 100.453ZM241.166 79.8127C241.113 79.8127 241.113 79.8127 241.166 79.8127C240.211 79.7597 239.521 79.0699 239.575 78.1679C239.681 74.5068 240.158 70.9518 240.954 67.503C241.166 66.654 242.015 66.1234 242.864 66.2826C243.713 66.4948 244.244 67.3438 244.085 68.1927C243.342 71.4294 242.917 74.8252 242.811 78.274C242.705 79.123 242.015 79.8127 241.166 79.8127ZM245.889 59.5441C245.676 59.5441 245.411 59.491 245.199 59.3849C244.403 59.0135 244.085 58.0584 244.456 57.2625C245.995 53.9728 247.905 50.8954 250.186 48.0832C250.717 47.3935 251.725 47.2874 252.415 47.8179C253.105 48.3485 253.211 49.3567 252.68 50.0464C250.611 52.6464 248.807 55.5646 247.374 58.589C247.056 59.2257 246.472 59.5441 245.889 59.5441ZM258.835 43.361C258.358 43.361 257.88 43.1487 257.562 42.7243C257.031 42.0345 257.19 41.0264 257.88 40.4958C260.692 38.3734 263.876 36.5694 267.325 35.1368C268.12 34.8184 269.076 35.1898 269.394 35.9857C269.712 36.7816 269.341 37.7367 268.545 38.055C265.361 39.3815 262.39 41.0794 259.79 42.9895C259.525 43.2548 259.153 43.361 258.835 43.361ZM308.499 39.3285C308.233 39.3285 307.968 39.2754 307.756 39.1162C304.944 37.5775 301.76 36.4102 298.364 35.6143C297.515 35.4021 296.985 34.5531 297.197 33.7042C297.409 32.8552 298.258 32.3246 299.107 32.5369C302.768 33.3858 306.164 34.7123 309.294 36.3571C310.09 36.7816 310.356 37.7367 309.931 38.5326C309.613 39.0101 309.082 39.3285 308.499 39.3285ZM277.936 35.2429C277.194 35.2429 276.504 34.7123 276.398 33.9164C276.239 33.0675 276.822 32.2185 277.671 32.0593C281.226 31.4226 284.834 31.1043 288.389 31.1573C289.291 31.1573 289.981 31.9001 289.928 32.8022C289.928 33.6511 289.185 34.3409 288.336 34.3409C288.336 34.3409 288.336 34.3409 288.283 34.3409C284.887 34.2878 281.491 34.5531 278.202 35.1898C278.149 35.1898 278.043 35.2429 277.936 35.2429Z" fill="#00AEEF"/>
<g clip-path="url(#clip0_80_90)">
<path d="M547.395 177.533C549.002 177.533 550.644 177.497 552.251 177.533C552.908 177.533 553.164 177.317 553.164 176.666C553.127 171.101 553.164 165.501 553.164 159.936C553.164 159.719 553.273 159.43 553.017 159.358C552.871 159.321 552.652 159.502 552.506 159.611C551.776 160.153 551.046 160.695 550.316 161.237C549.914 161.526 549.659 161.526 549.33 161.128C547.76 159.285 547.76 159.285 549.659 157.876C550.17 157.479 550.718 157.117 551.229 156.72C552.141 156.033 552.141 156.033 551.265 155.383C550.352 154.696 549.44 154.01 548.527 153.359C548.052 153.034 547.979 152.781 548.345 152.275C549.732 150.396 549.732 150.396 551.594 151.769C552.068 152.131 552.543 152.456 553.2 152.962C553.2 151.805 553.237 150.83 553.2 149.818C553.164 149.023 553.383 148.698 554.259 148.734C556.595 148.806 556.34 148.373 556.376 150.794C556.376 151.408 556.084 152.347 556.522 152.528C557.07 152.781 557.581 151.986 558.092 151.589C559.771 150.396 559.698 150.396 561.013 152.022C561.524 152.673 561.487 153.034 560.794 153.468C559.808 154.118 558.895 154.877 557.91 155.563C557.471 155.889 557.508 156.105 557.91 156.395C558.932 157.153 559.954 157.912 560.976 158.671C561.451 158.996 561.487 159.285 561.122 159.755C559.771 161.634 559.771 161.634 557.946 160.261C557.581 160.008 557.216 159.719 556.851 159.466C556.486 159.177 556.34 159.321 556.34 159.719C556.34 160.369 556.34 161.02 556.34 161.67C556.34 166.476 556.34 171.318 556.34 176.124C556.34 177.497 556.34 177.497 557.763 177.497C559.333 177.497 560.903 177.461 562.473 177.497C563.13 177.497 563.386 177.244 563.386 176.594C563.349 175.365 563.386 174.173 563.386 172.944C563.386 155.78 563.386 138.616 563.386 121.488C563.386 120.043 563.386 120.043 561.962 120.043C560.465 120.043 560.465 120.043 560.465 118.525C560.465 116.935 560.465 116.935 562.071 116.935C566.051 116.935 570.03 116.899 574.009 116.935C574.813 116.935 575.105 116.755 575.068 115.887C574.995 114.117 575.251 114.261 573.389 114.261C572.147 114.261 572.111 114.261 572.147 112.997C572.147 110.937 571.892 111.19 573.936 111.19C585.582 111.19 597.228 111.19 608.874 111.19C610.188 111.19 610.188 111.19 610.188 112.491C610.152 114.406 610.48 114.334 608.363 114.297C607.487 114.261 607.231 114.586 607.268 115.418C607.341 117.116 607.085 116.971 608.838 116.971C612.78 116.971 616.76 116.971 620.703 116.971C621.907 116.971 621.907 116.971 621.907 118.128C621.907 120.368 621.98 120.079 620.009 120.079C619.242 120.079 618.987 120.332 618.987 121.091C618.987 139.556 618.987 158.057 618.987 176.522C618.987 177.208 619.169 177.533 619.936 177.533C621.688 177.497 623.404 177.497 625.156 177.533C625.777 177.533 625.996 177.281 625.996 176.702C625.996 171.065 625.996 165.428 625.996 159.791C625.996 159.647 625.96 159.538 625.923 159.213C625.01 159.9 624.171 160.478 623.331 161.128C622.82 161.526 622.528 161.526 622.09 160.984C620.739 159.213 620.703 159.213 622.491 157.876C623.149 157.37 623.806 156.9 624.463 156.395C624.828 156.105 624.828 155.925 624.463 155.636C623.404 154.877 622.382 154.082 621.323 153.323C620.885 152.998 620.849 152.745 621.177 152.275C622.528 150.36 622.528 150.36 624.426 151.733C624.864 152.058 625.339 152.781 625.814 152.564C626.288 152.347 625.996 151.552 625.996 151.01C626.069 148.336 625.595 148.806 628.406 148.734C628.99 148.734 629.136 148.987 629.136 149.493C629.099 150.577 629.136 151.625 629.136 152.926C630.048 152.239 630.815 151.661 631.618 151.083C632.567 150.36 632.568 150.36 633.298 151.336C634.429 152.853 634.429 152.853 632.896 154.01C632.202 154.516 631.509 155.058 630.779 155.563C630.377 155.853 630.341 156.105 630.779 156.395C631.801 157.153 632.823 157.948 633.845 158.671C634.356 159.032 634.356 159.285 633.991 159.755C632.641 161.598 632.641 161.598 630.779 160.261C630.304 159.9 629.793 159.141 629.282 159.394C628.88 159.574 629.172 160.478 629.136 161.056C629.136 166.187 629.136 171.318 629.099 176.449C629.099 177.244 629.318 177.57 630.158 177.533C631.472 177.461 632.787 177.533 634.101 177.533C634.721 177.533 634.977 177.75 634.94 178.365C634.867 181.075 635.306 180.605 632.714 180.605C604.749 180.605 576.747 180.605 548.783 180.605C548.345 180.605 547.87 180.569 547.432 180.569C547.395 179.593 547.395 178.581 547.395 177.533ZM578.135 145.915C578.171 155.889 578.171 165.862 578.171 175.835C578.171 176.088 578.208 176.341 578.171 176.594C578.098 177.281 578.354 177.57 579.084 177.533C579.778 177.497 580.471 177.497 581.128 177.533C581.968 177.606 582.297 177.317 582.26 176.449C582.224 174.101 582.224 171.788 582.26 169.439C582.26 168.03 582.844 167.524 584.268 167.524C585.947 167.524 587.627 167.524 589.306 167.524C592.263 167.524 595.22 167.524 598.177 167.524C599.309 167.524 599.82 167.958 599.966 169.006C600.003 169.331 600.003 169.692 600.003 170.017C600.003 172.222 600.039 174.426 600.003 176.594C600.003 177.281 600.258 177.57 600.952 177.533C601.646 177.497 602.339 177.461 602.996 177.533C603.873 177.606 604.092 177.281 604.092 176.413C604.092 156.105 604.092 135.798 604.092 115.49C604.092 114.334 604.092 114.334 602.887 114.334C595.074 114.334 587.298 114.334 579.485 114.334C578.098 114.334 578.098 114.334 578.098 115.67C578.135 125.752 578.135 135.834 578.135 145.915ZM574.995 148.806C574.995 139.556 574.995 130.341 574.995 121.091C574.995 120.332 574.776 120.043 573.973 120.079C571.746 120.115 569.519 120.115 567.328 120.079C566.562 120.079 566.379 120.332 566.379 121.055C566.379 139.556 566.379 158.057 566.379 176.558C566.379 177.281 566.598 177.57 567.328 177.533C569.446 177.497 571.527 177.533 573.644 177.533C574.959 177.533 574.959 177.533 574.959 176.269C574.995 167.127 574.995 157.948 574.995 148.806ZM607.231 148.806C607.231 158.057 607.231 167.271 607.231 176.522C607.231 177.281 607.45 177.57 608.253 177.533C610.444 177.497 612.634 177.497 614.825 177.533C615.664 177.57 615.884 177.244 615.884 176.449C615.847 174.354 615.884 172.294 615.884 170.198C615.884 153.865 615.884 137.532 615.884 121.199C615.884 120.079 615.884 120.079 614.752 120.079C612.634 120.079 610.553 120.079 608.436 120.079C607.268 120.079 607.268 120.079 607.268 121.271C607.231 130.45 607.231 139.628 607.231 148.806ZM592.701 173.956C592.701 174.896 592.701 175.799 592.701 176.739C592.701 177.244 592.847 177.533 593.431 177.497C594.344 177.461 595.257 177.497 596.169 177.497C596.644 177.497 596.9 177.353 596.9 176.811C596.9 174.932 596.9 173.053 596.9 171.174C596.9 170.668 596.681 170.487 596.169 170.487C595.257 170.523 594.344 170.523 593.431 170.487C592.884 170.487 592.665 170.704 592.701 171.246C592.701 172.149 592.701 173.053 592.701 173.956ZM589.525 174.028C589.525 173.089 589.525 172.113 589.525 171.174C589.525 170.704 589.343 170.523 588.868 170.523C587.919 170.523 586.933 170.523 585.984 170.523C585.546 170.523 585.363 170.704 585.363 171.138C585.363 173.053 585.363 174.968 585.363 176.883C585.363 177.353 585.546 177.533 586.02 177.533C586.97 177.533 587.882 177.533 588.831 177.533C589.343 177.533 589.562 177.353 589.562 176.847C589.525 175.907 589.525 174.968 589.525 174.028Z" fill="#00AEEF"/>
<path d="M595.585 155.238C595.585 155.346 595.585 155.455 595.585 155.563C595.585 157.587 595.001 158.02 592.957 157.587C592.628 157.514 592.446 157.334 592.446 157.008C592.446 155.888 592.446 154.768 592.446 153.648C592.446 153.25 592.665 153.034 593.066 153.034C593.103 153.034 593.139 153.034 593.139 153.034C596.133 153.034 595.549 152.708 595.585 155.238Z" fill="#00AEEF"/>
<path d="M586.641 155.274C586.641 155.202 586.641 155.166 586.641 155.093C586.641 152.889 586.97 152.636 589.196 152.997C589.635 153.07 589.781 153.287 589.781 153.684C589.781 154.768 589.781 155.816 589.781 156.9C589.781 157.406 589.525 157.55 589.05 157.623C586.641 157.803 586.641 157.803 586.641 155.274Z" fill="#00AEEF"/>
<path d="M589.781 133.702C589.781 133.774 589.781 133.81 589.781 133.882C589.781 136.05 589.416 136.339 587.189 135.942C586.75 135.87 586.604 135.653 586.604 135.255C586.604 134.171 586.604 133.123 586.604 132.039C586.604 131.606 586.787 131.353 587.262 131.353C587.298 131.353 587.335 131.353 587.335 131.353C590.328 131.389 589.708 131.064 589.781 133.702Z" fill="#00AEEF"/>
<path d="M595.585 133.593C595.585 133.738 595.622 133.882 595.585 134.027C595.476 134.641 595.914 135.472 595.293 135.833C594.6 136.231 593.687 135.978 592.884 135.942C592.519 135.906 592.446 135.617 592.446 135.328C592.446 134.244 592.446 133.196 592.446 132.112C592.446 131.606 592.665 131.389 593.176 131.389C596.133 131.389 595.549 131.1 595.585 133.593Z" fill="#00AEEF"/>
<path d="M601.427 133.738C601.427 133.81 601.427 133.846 601.427 133.918C601.427 136.086 601.134 136.339 598.908 135.978C598.506 135.906 598.287 135.725 598.287 135.328C598.287 134.244 598.287 133.123 598.287 132.039C598.287 131.606 598.506 131.425 598.908 131.425C598.944 131.425 598.981 131.425 598.981 131.425C601.427 131.172 601.427 131.172 601.427 133.738Z" fill="#00AEEF"/>
<path d="M601.427 155.31C601.427 155.418 601.427 155.527 601.427 155.635C601.354 156.25 601.719 157.045 601.207 157.406C600.514 157.876 599.601 157.587 598.798 157.55C598.396 157.55 598.323 157.225 598.323 156.864C598.323 155.78 598.177 154.696 598.36 153.648C598.579 152.383 599.674 153.142 600.368 152.997C600.842 152.889 601.463 152.853 601.427 153.684C601.39 154.262 601.427 154.804 601.427 155.31Z" fill="#00AEEF"/>
<path d="M580.836 155.274C580.836 155.238 580.836 155.202 580.836 155.202C580.909 152.781 580.289 153.034 583.246 153.034C583.684 153.034 583.939 153.214 583.939 153.684C583.939 154.768 583.939 155.888 583.939 156.972C583.939 157.009 583.939 157.045 583.939 157.045C583.392 158.129 582.37 157.442 581.603 157.587C581.128 157.695 580.8 157.442 580.836 156.864C580.836 156.322 580.836 155.816 580.836 155.274Z" fill="#00AEEF"/>
<path d="M583.976 133.738C583.976 133.774 583.976 133.81 583.976 133.81C583.976 136.123 583.866 136.195 581.493 135.942C581.055 135.906 580.836 135.725 580.836 135.255C580.836 134.171 580.836 133.123 580.836 132.039C580.836 131.57 581.019 131.353 581.493 131.353C581.53 131.353 581.566 131.353 581.566 131.353C584.487 131.389 583.903 131.064 583.976 133.738Z" fill="#00AEEF"/>
<path d="M583.976 119.248C583.939 121.849 584.377 121.452 581.639 121.488C581.055 121.488 580.8 121.307 580.836 120.693C580.873 119.717 580.873 118.742 580.836 117.73C580.836 117.188 581.019 116.971 581.566 116.971C584.414 117.007 583.903 116.61 583.976 119.248Z" fill="#00AEEF"/>
<path d="M589.781 119.284C589.781 119.32 589.781 119.356 589.781 119.356C589.781 121.524 589.343 121.885 587.152 121.452C586.787 121.38 586.677 121.199 586.641 120.874C586.641 119.79 586.641 118.669 586.641 117.585C586.641 117.188 586.823 116.971 587.262 116.971C587.298 116.971 587.335 116.971 587.335 116.971C590.292 117.007 589.708 116.61 589.781 119.284Z" fill="#00AEEF"/>
<path d="M595.585 119.247C595.512 121.849 596.023 121.416 593.249 121.488C592.665 121.488 592.409 121.271 592.446 120.693C592.482 119.717 592.446 118.742 592.446 117.73C592.446 117.224 592.665 116.971 593.212 116.971C596.096 117.007 595.549 116.646 595.585 119.247Z" fill="#00AEEF"/>
<path d="M601.427 119.247C601.353 121.849 601.901 121.416 599.09 121.488C598.506 121.488 598.25 121.271 598.287 120.693C598.287 119.717 598.287 118.742 598.287 117.73C598.287 117.224 598.506 116.971 599.054 116.971C601.901 117.007 601.353 116.646 601.427 119.247Z" fill="#00AEEF"/>
<path d="M583.976 140.928C583.939 143.53 584.377 143.097 581.603 143.133C581.092 143.133 580.8 142.952 580.836 142.41C580.873 141.398 580.836 140.386 580.836 139.375C580.836 138.833 581.092 138.616 581.603 138.616C584.377 138.652 583.903 138.255 583.976 140.928Z" fill="#00AEEF"/>
<path d="M583.976 126.511C583.976 126.583 583.976 126.619 583.976 126.691C583.976 128.823 583.574 129.148 581.384 128.751C581.055 128.679 580.873 128.534 580.873 128.209C580.873 127.089 580.873 125.968 580.873 124.848C580.873 124.487 581.055 124.27 581.457 124.27C581.493 124.27 581.53 124.27 581.53 124.27C584.451 124.27 583.903 123.837 583.976 126.511Z" fill="#00AEEF"/>
<path d="M589.781 126.547C589.781 126.619 589.781 126.655 589.781 126.728C589.781 128.787 589.27 129.185 587.152 128.751C586.75 128.679 586.641 128.426 586.641 128.101C586.641 127.053 586.641 126.005 586.641 124.993C586.641 124.487 586.823 124.27 587.335 124.27C590.255 124.27 589.708 123.837 589.781 126.547Z" fill="#00AEEF"/>
<path d="M595.585 126.511C595.585 126.547 595.585 126.583 595.585 126.583C595.585 128.932 595.476 129.004 593.066 128.751C592.665 128.715 592.446 128.534 592.446 128.137C592.446 127.053 592.263 125.896 592.482 124.848C592.738 123.656 593.906 124.487 594.636 124.27C595.074 124.162 595.585 124.234 595.549 124.921C595.585 125.427 595.585 125.969 595.585 126.511Z" fill="#00AEEF"/>
<path d="M601.427 126.511C601.427 126.547 601.427 126.583 601.427 126.583C601.427 128.896 601.317 129.004 598.908 128.715C598.506 128.679 598.287 128.498 598.287 128.101C598.287 127.017 598.104 125.86 598.323 124.812C598.615 123.584 599.82 124.451 600.55 124.234C600.988 124.126 601.39 124.27 601.39 124.885C601.39 125.427 601.427 125.969 601.427 126.511Z" fill="#00AEEF"/>
<path d="M580.836 162.537C580.836 162.465 580.836 162.357 580.836 162.284C580.836 160.225 581.347 159.827 583.465 160.261C583.83 160.333 583.976 160.514 583.976 160.839C583.976 161.959 583.976 163.079 583.976 164.199C583.976 164.525 583.793 164.741 583.465 164.741C583.392 164.741 583.355 164.741 583.282 164.741C580.289 164.705 580.909 165.139 580.836 162.537Z" fill="#00AEEF"/>
<path d="M586.641 162.537C586.641 162.465 586.641 162.357 586.641 162.284C586.641 160.225 587.152 159.827 589.27 160.261C589.671 160.333 589.781 160.586 589.781 160.911C589.781 161.959 589.781 163.007 589.781 164.019C589.781 164.489 589.562 164.741 589.05 164.741C586.13 164.705 586.714 165.139 586.641 162.537Z" fill="#00AEEF"/>
<path d="M580.836 148.155C580.836 148.083 580.836 148.047 580.836 147.975C580.836 145.807 581.238 145.481 583.465 145.879C583.83 145.951 583.976 146.132 583.976 146.457C583.976 147.577 583.976 148.697 583.976 149.818C583.976 150.143 583.793 150.323 583.465 150.36C583.392 150.36 583.355 150.36 583.282 150.36C580.289 150.36 580.873 150.721 580.836 148.155Z" fill="#00AEEF"/>
<path d="M586.641 148.119C586.714 145.518 586.203 145.951 588.977 145.879C589.562 145.879 589.817 146.096 589.781 146.674C589.744 147.65 589.781 148.625 589.781 149.637C589.781 150.179 589.562 150.396 589.014 150.396C586.166 150.36 586.714 150.721 586.641 148.119Z" fill="#00AEEF"/>
<path d="M595.585 148.119C595.585 148.155 595.585 148.192 595.585 148.192C595.585 150.54 595.476 150.613 593.066 150.36C592.665 150.324 592.446 150.143 592.446 149.745C592.446 148.661 592.263 147.505 592.482 146.457C592.738 145.265 593.906 146.096 594.636 145.879C595.074 145.771 595.585 145.843 595.549 146.529C595.585 147.071 595.585 147.613 595.585 148.119Z" fill="#00AEEF"/>
<path d="M601.427 148.083C601.427 148.155 601.427 148.264 601.427 148.336C601.427 150.396 600.879 150.793 598.798 150.36C598.469 150.287 598.323 150.107 598.323 149.781C598.323 148.697 598.323 147.577 598.323 146.493C598.323 146.096 598.506 145.879 598.944 145.879C598.981 145.879 599.017 145.879 599.017 145.879C601.938 145.915 601.354 145.481 601.427 148.083Z" fill="#00AEEF"/>
<path d="M601.427 162.501C601.427 162.573 601.427 162.609 601.427 162.682C601.427 164.85 600.988 165.175 598.798 164.777C598.433 164.705 598.323 164.524 598.287 164.199C598.287 163.115 598.287 161.995 598.287 160.911C598.287 160.513 598.469 160.261 598.908 160.297C598.944 160.297 598.981 160.297 598.981 160.297C601.938 160.297 601.354 159.899 601.427 162.501Z" fill="#00AEEF"/>
<path d="M601.427 140.856C601.427 140.892 601.427 140.929 601.427 140.929C601.354 143.458 601.974 143.061 598.944 143.097C598.469 143.097 598.287 142.844 598.287 142.41C598.287 141.362 598.287 140.314 598.287 139.302C598.287 138.797 598.506 138.58 599.017 138.616C601.938 138.652 601.354 138.291 601.427 140.856Z" fill="#00AEEF"/>
<path d="M595.585 162.501C595.585 162.573 595.585 162.609 595.585 162.682C595.585 164.85 595.147 165.175 592.957 164.777C592.592 164.705 592.446 164.525 592.446 164.199C592.446 163.079 592.446 161.959 592.446 160.839C592.446 160.514 592.628 160.333 592.957 160.297C593.03 160.297 593.066 160.297 593.139 160.297C596.096 160.297 595.549 159.935 595.585 162.501Z" fill="#00AEEF"/>
<path d="M595.585 140.892C595.512 143.494 596.023 143.06 593.249 143.133C592.665 143.133 592.409 142.916 592.446 142.338C592.482 141.362 592.446 140.386 592.446 139.375C592.446 138.833 592.665 138.616 593.212 138.616C596.096 138.652 595.549 138.291 595.585 140.892Z" fill="#00AEEF"/>
<path d="M589.781 140.892C589.744 143.494 590.182 143.06 587.444 143.133C586.86 143.133 586.604 142.916 586.641 142.338C586.677 141.362 586.641 140.386 586.641 139.375C586.641 138.833 586.86 138.616 587.408 138.616C590.255 138.652 589.744 138.291 589.781 140.892Z" fill="#00AEEF"/>
<path d="M572.22 133.665C572.22 134.099 572.184 134.496 572.22 134.93C572.33 135.761 571.928 135.978 571.125 135.978C568.789 135.942 569.227 136.086 569.154 134.063C569.154 133.376 569.154 132.726 569.154 132.039C569.154 131.642 569.336 131.425 569.774 131.389C569.847 131.389 569.884 131.389 569.957 131.389C572.22 131.244 572.22 131.244 572.22 133.665Z" fill="#00AEEF"/>
<path d="M572.22 155.31C572.22 155.744 572.184 156.141 572.22 156.575C572.33 157.406 571.928 157.623 571.125 157.623C568.789 157.587 569.227 157.731 569.154 155.708C569.154 155.021 569.154 154.371 569.154 153.684C569.154 153.287 569.336 153.07 569.774 153.034C569.847 153.034 569.884 153.034 569.957 153.034C572.22 152.853 572.22 152.853 572.22 155.31Z" fill="#00AEEF"/>
<path d="M569.19 126.438C569.19 126.366 569.19 126.258 569.19 126.185C569.263 125.571 568.898 124.74 569.373 124.415C570.03 123.981 570.979 124.27 571.782 124.27C572.111 124.27 572.184 124.523 572.184 124.812C572.184 125.932 572.184 127.053 572.184 128.173C572.184 128.498 572.001 128.679 571.673 128.715C571.6 128.715 571.563 128.715 571.49 128.715C569.19 128.932 569.19 128.932 569.19 126.438Z" fill="#00AEEF"/>
<path d="M572.22 162.573C572.22 162.609 572.22 162.646 572.22 162.646C572.22 164.958 572.147 165.03 569.774 164.741C569.336 164.705 569.19 164.488 569.19 164.091C569.19 163.007 569.19 161.959 569.19 160.875C569.19 160.477 569.336 160.224 569.774 160.224C569.811 160.224 569.847 160.224 569.847 160.224C572.22 160.08 572.22 160.08 572.22 162.573Z" fill="#00AEEF"/>
<path d="M572.22 148.119C572.22 148.192 572.22 148.228 572.22 148.3C572.22 150.54 572.111 150.649 569.811 150.36C569.409 150.324 569.19 150.143 569.19 149.745C569.19 148.661 569.19 147.541 569.19 146.457C569.19 146.06 569.373 145.879 569.774 145.879C569.811 145.879 569.847 145.879 569.847 145.879C572.22 145.698 572.22 145.698 572.22 148.119Z" fill="#00AEEF"/>
<path d="M572.22 140.928C572.22 140.965 572.22 141.001 572.22 141.001C572.22 143.349 572.147 143.386 569.774 143.133C569.336 143.097 569.19 142.916 569.19 142.482C569.19 141.398 569.19 140.35 569.19 139.266C569.19 139.194 569.19 139.158 569.19 139.086C569.738 138.11 570.651 138.796 571.381 138.616C571.782 138.507 572.184 138.616 572.184 139.194C572.22 139.772 572.22 140.35 572.22 140.928Z" fill="#00AEEF"/>
<path d="M572.22 169.836C572.22 169.873 572.22 169.909 572.22 169.909C572.22 172.149 572.111 172.221 569.811 171.968C569.409 171.932 569.19 171.788 569.19 171.354C569.19 170.27 569.19 169.15 569.19 168.066C569.19 167.704 569.373 167.488 569.738 167.488C569.774 167.488 569.811 167.488 569.811 167.488C572.22 167.307 572.22 167.307 572.22 169.836Z" fill="#00AEEF"/>
<path d="M613.036 155.346C613.036 155.491 613.036 155.635 613.036 155.78C612.963 156.358 613.328 157.117 612.817 157.442C612.123 157.876 611.211 157.623 610.407 157.587C610.115 157.587 610.006 157.334 610.006 157.045C610.006 155.924 609.933 154.804 610.042 153.684C610.152 152.6 611.101 153.106 611.649 153.07C612.123 153.034 612.963 152.672 613.036 153.684C613.072 154.226 613.036 154.768 613.036 155.346Z" fill="#00AEEF"/>
<path d="M613.036 133.774C613.036 133.846 613.036 133.882 613.036 133.955C613.036 136.123 612.78 136.303 610.59 135.978C610.188 135.906 609.969 135.761 610.006 135.328C610.006 134.244 610.006 133.123 610.006 132.039C610.006 132.003 610.006 131.967 610.006 131.967C610.407 130.919 611.32 131.533 611.977 131.425C612.379 131.353 612.999 131.244 613.036 132.003C613.036 132.581 613.036 133.16 613.036 133.774Z" fill="#00AEEF"/>
<path d="M610.006 126.438C610.006 126.366 610.006 126.33 610.006 126.258C610.006 124.162 610.371 123.873 612.525 124.234C612.89 124.306 612.999 124.451 612.999 124.776C612.999 125.86 612.999 126.98 612.999 128.064C612.999 128.895 612.342 128.787 611.904 128.679C611.247 128.534 610.261 129.293 610.006 128.064C609.933 127.559 610.006 126.98 610.006 126.438Z" fill="#00AEEF"/>
<path d="M613.036 148.192C613.036 148.3 613.036 148.408 613.036 148.517C612.963 149.095 613.328 149.89 612.817 150.179C612.123 150.613 611.211 150.36 610.407 150.324C610.079 150.324 610.006 150.034 610.006 149.781C610.006 148.697 609.896 147.577 610.042 146.493C610.188 145.301 611.211 146.023 611.831 145.915C612.269 145.843 612.999 145.59 613.036 146.493C613.036 147.071 613.036 147.613 613.036 148.192Z" fill="#00AEEF"/>
<path d="M613.036 140.892C613.036 140.965 613.036 141.001 613.036 141.073C613.036 143.313 612.853 143.458 610.553 143.133C610.152 143.097 610.006 142.916 610.006 142.555C610.006 141.471 609.896 140.35 610.042 139.266C610.225 138.074 611.284 138.833 611.941 138.688C612.379 138.58 613.036 138.471 613.036 139.302C613.036 139.808 613.036 140.35 613.036 140.892Z" fill="#00AEEF"/>
<path d="M610.006 162.465C610.006 162.393 610.006 162.356 610.006 162.284C610.006 160.08 610.152 159.972 612.452 160.225C612.89 160.261 613.036 160.477 613.036 160.875C613.036 161.959 613.036 163.007 613.036 164.091C613.036 164.561 612.817 164.705 612.342 164.741C610.006 164.922 610.006 164.958 610.006 162.465Z" fill="#00AEEF"/>
<path d="M613.036 169.764C613.036 169.836 613.036 169.872 613.036 169.945C612.963 172.294 613.547 172.004 610.736 172.004C610.225 172.004 610.006 171.824 610.006 171.318C610.006 170.27 610.006 169.222 610.006 168.21C610.006 167.741 610.188 167.56 610.663 167.524C613.036 167.307 613.036 167.307 613.036 169.764Z" fill="#00AEEF"/>
</g>
<g clip-path="url(#clip1_80_90)">
<path d="M68.1021 167.223L66.9563 164.929C65.6919 162.477 64.467 160.025 63.2026 157.612C62.9656 157.177 62.8865 156.742 62.8865 156.228C62.8865 147.131 62.8865 137.995 62.8865 128.898V124.073V123.875C62.8865 123.638 62.8865 123.44 62.8865 123.203C62.847 121.937 61.8987 121.028 60.6739 120.948C60.4763 120.948 60.2392 120.948 60.0417 120.948H59.8046H12.6669H11.4816C10.4938 120.948 9.54548 120.948 8.55769 120.948C7.13526 120.948 6.18697 121.898 6.14746 123.322C6.14746 123.519 6.14746 123.717 6.14746 123.915V124.113V128.7C6.14746 137.876 6.14746 147.052 6.14746 156.228C6.14746 156.742 6.02893 157.217 5.79186 157.652C5.35722 158.522 4.92259 159.392 4.48796 160.222C3.65821 161.884 2.82846 163.584 1.91969 165.206C1.01092 166.788 0.694821 168.449 0.813357 170.466C0.892381 171.574 1.56408 172.523 2.59139 172.879C3.06553 173.037 3.50017 173.037 3.9348 173.037H15.4328C31.9487 173.037 48.4647 173.037 64.9412 173.037C66.4821 173.037 67.4699 172.444 68.0626 171.178C68.1021 171.139 68.1021 171.059 68.1021 171.02V167.381C68.1811 167.342 68.1416 167.263 68.1021 167.223ZM3.65821 169.28C3.89528 169.28 4.09284 169.28 4.2904 169.28H64.7831C65.2572 169.28 65.3758 169.359 65.3758 169.398C65.4153 169.438 65.4548 169.556 65.3363 170.071C65.3363 170.11 65.3363 170.11 65.3363 170.11C65.3363 170.11 65.2968 170.11 65.2573 170.11C65.0202 170.11 64.7831 170.11 64.546 170.11H4.44845H4.17187C3.89528 170.11 3.69772 170.031 3.6187 169.873C3.53968 169.754 3.53968 169.517 3.65821 169.28ZM60.0417 155.358C60.0417 155.555 60.0417 155.793 60.0417 155.911C59.9231 155.911 59.7256 155.911 59.4885 155.911H9.50597C9.30841 155.911 9.11085 155.911 8.99232 155.911C8.99232 155.793 8.99232 155.595 8.99232 155.397V124.389C8.99232 124.192 8.99232 123.954 8.99232 123.875C9.11085 123.875 9.30841 123.875 9.50597 123.875H59.4885C59.6861 123.875 59.9231 123.875 60.0417 123.875C60.0417 123.994 60.0417 124.231 60.0417 124.429V155.358ZM9.34793 158.838H39.614C46.2915 158.838 53.2061 158.838 59.9627 158.838C60.4763 158.838 60.6739 158.957 60.9109 159.392C62.0963 161.805 63.3212 164.178 64.467 166.432V166.472C64.467 166.472 64.467 166.472 64.4275 166.472C57.75 166.472 51.0725 166.472 44.5135 166.472C44.1974 166.472 44.1184 166.432 44.0394 166.116C43.7628 165.048 43.4862 163.98 43.2491 163.149C42.854 161.765 42.1033 161.172 40.7204 161.172C38.6657 161.172 36.5716 161.132 34.517 161.132C32.4229 161.132 30.3683 161.132 28.3136 161.172C26.9307 161.172 26.18 161.765 25.7849 163.149C25.4688 164.257 25.1922 165.245 24.9551 166.234C24.9156 166.432 24.8761 166.472 24.6785 166.472C18.001 166.472 11.284 166.472 4.6065 166.472C5.87088 164.019 7.09575 161.567 8.36013 159.076C8.47866 158.878 8.55769 158.838 8.71573 158.878C8.87378 158.878 9.03183 158.878 9.18988 158.878L9.34793 158.838ZM27.958 166.195L28.1161 165.601C28.2346 165.166 28.3531 164.692 28.4717 164.257C28.5112 164.098 28.5507 164.059 28.7088 164.059C32.5809 164.059 36.4531 164.059 40.3252 164.059C40.5228 164.059 40.5228 164.098 40.5623 164.257L40.6413 164.534C40.7994 165.127 40.9574 165.72 41.1155 166.313C41.155 166.392 41.155 166.432 41.155 166.472C41.1155 166.472 41.076 166.472 40.9574 166.472C39.9696 166.472 38.9423 166.472 37.9545 166.472C37.3619 166.472 36.8087 166.472 36.216 166.472H32.6599C31.119 166.472 29.6175 166.472 28.0766 166.472C27.9975 166.472 27.9185 166.472 27.8395 166.472C27.879 166.353 27.9185 166.274 27.958 166.195Z" fill="#00AEEF"/>
<path d="M58.856 127.514C58.856 125.695 58.1843 124.983 56.3272 124.983H29.0245C23.5323 124.983 18.0402 124.983 12.5875 124.983C10.928 124.983 10.1773 125.734 10.1773 127.395C10.1773 130.362 10.1773 133.288 10.1773 136.255V136.887V137.006C10.1773 137.164 10.1773 137.362 10.2168 137.56C10.3354 138.272 10.849 138.707 11.5207 138.707C12.2319 138.746 12.7851 138.351 12.9827 137.639C13.0222 137.402 13.0222 137.164 13.0222 136.967V136.848V134.91C13.0222 132.774 13.0222 130.559 13.0222 128.424C13.0222 128.107 13.0617 128.028 13.0617 128.028C13.0617 128.028 13.1407 127.949 13.4173 127.949C26.7723 127.949 40.562 127.949 55.616 127.949C55.9321 127.949 55.9716 127.989 55.9716 127.989C55.9716 127.989 56.0111 128.068 56.0111 128.344C55.9716 130.441 56.0111 132.576 56.0111 134.633V136.769V136.927C56.0111 137.125 56.0111 137.283 56.0506 137.481C56.1692 138.232 56.6828 138.667 57.4335 138.746C57.4731 138.746 57.4731 138.746 57.5126 138.746C58.1843 138.746 58.7769 138.193 58.856 137.481C58.8955 137.283 58.8955 137.085 58.856 136.927V136.808C58.856 133.644 58.856 130.559 58.856 127.514Z" fill="#00AEEF"/>
<path d="M57.5125 141.08C56.7618 141.04 56.2482 141.436 56.0901 142.187C56.0506 142.425 56.0506 142.662 56.0506 142.86V142.978V144.995C56.0506 147.131 56.0506 149.346 56.0506 151.521C56.0506 151.838 56.0111 151.877 56.0111 151.877C56.0111 151.877 55.9716 151.917 55.6555 151.917C42.3795 151.917 28.5503 151.917 13.4173 151.917C13.1407 151.917 13.0617 151.877 13.0617 151.877C13.0617 151.877 13.0222 151.838 13.0222 151.561C13.0617 148.753 13.0222 145.905 13.0222 143.136V142.662C13.0222 141.713 12.469 141.119 11.5997 141.119C10.7305 141.119 10.2168 141.713 10.1773 142.662C10.1773 143.255 10.1773 143.809 10.1773 144.402V145.074V147.131C10.1773 148.99 10.1773 150.809 10.1773 152.668C10.1773 153.855 10.77 154.567 11.9553 154.764C12.3505 154.844 12.7456 154.844 13.0617 154.844C18.8699 154.844 24.6782 154.844 30.5259 154.844H53.8379H54.6282C54.9048 154.844 55.1418 154.844 55.4184 154.844C55.774 154.844 56.1296 154.844 56.5247 154.844C58.1447 154.804 58.8955 154.053 58.8955 152.431C58.8955 149.267 58.8955 146.103 58.8955 142.939V142.86C58.8955 142.701 58.8955 142.504 58.8559 142.306C58.6979 141.515 58.2238 141.119 57.5125 141.08Z" fill="#00AEEF"/>
</g>
<defs>
<clipPath id="clip0_80_90">
<rect width="87.5087" height="69.4513" fill="white" transform="translate(547.395 111.226)"/>
</clipPath>
<clipPath id="clip1_80_90">
<rect width="67.3678" height="52.0885" fill="white" transform="translate(0.812988 120.948)"/>
</clipPath>
</defs>
</svg>
