<svg width="19" height="19" xmlns="http://www.w3.org/2000/svg" xmlns:xlink="http://www.w3.org/1999/xlink"><defs><path d="M13.8 7.9a.4.4 0 01-.7-.4c.4-.9.7-1.8.7-2.5 0-1-2.1-1.8-4.4-1.8-1.8 0-2.7.6-2.7 1.8 0 .7.6 1.7 1.7 2.7a.4.4 0 01-.6.6C6.6 7.2 5.8 6 5.8 5c0-1.8 1.4-2.6 3.6-2.6 2.7 0 5.2.9 5.2 2.6 0 .9-.3 2-.8 2.9zm-.2 8.3a.4.4 0 01.7-.4c.5.7 1.2 1.4 1.9 1.7 1 .4 2.5-1.2 3.5-3.3.7-1.6.6-2.7-.5-3.2-.6-.3-1.9-.1-3.2.4a.4.4 0 01-.3-.7c1.5-.6 3-.8 3.8-.4 1.7.7 1.8 2.3.9 4.3-1.2 2.5-3 4.3-4.6 3.6-.7-.4-1.6-1.1-2.2-2zm-7.5-4.5a.4.4 0 110 .8c-1 0-1.9.3-2.4.6-1 .6-.5 2.8.8 4.7 1 1.6 1.9 2 3 1.4.5-.4 1-1.5 1.3-2.9a.4.4 0 11.8.2c-.3 1.6-1 2.9-1.7 3.4-1.6 1-3 .2-4.1-1.6-1.5-2.4-2-4.9-.5-5.8.6-.5 1.7-.8 2.8-.8zm5 4.3a4 4 0 110-8 4 4 0 010 8zm0-.8a3.2 3.2 0 100-6.4 3.2 3.2 0 000 6.4zm0-1.3a1.9 1.9 0 110-3.8 1.9 1.9 0 010 3.8zm0-.8a1 1 0 100-2.2 1 1 0 000 2.2z" id="a"/></defs><g transform="translate(-2 -2)" fill="none" fill-rule="evenodd"><mask id="b" fill="#fff"><use xlink:href="#a"/></mask><use fill="#333" fill-rule="nonzero" xlink:href="#a"/><g mask="url(#b)" fill="#292f37"><path d="M0 0h23v23H0z"/></g></g></svg>