<svg width="22" height="17" xmlns="http://www.w3.org/2000/svg"><path d="M10.1 15.6l.1.4-.1-.4a1.4 1.4 0 01-1.8-1l-.2-.8a1.4 1.4 0 01.2-1.1c.2-.4.5-.6 1-.7a1.4 1.4 0 011 .2c.4.2.6.5.7.9l.2.8a1.4 1.4 0 01-1 1.7zm-5.1-2l-.2 1a1.4 1.4 0 01-.6.8 1.4 1.4 0 01-1.1.2 1.4 1.4 0 01-1-.6 1.4 1.4 0 01-.2-1l.2-1a1.4 1.4 0 011.4-1h.4a1.4 1.4 0 011 1.7zm6.8-.7a2.2 2.2 0 00-1-1.4c-.5-.3-1.1-.4-1.8-.2-.2 0-.5.1-.7.3l-.9-1.4c.3-.2.5-.6.6-1 .4-1.5 1.3-5.5 1.4-7.3 0-.6-.3-1-.6-1L6.5 8.4 4 1.1c-.3 0-.5.4-.5 1C3.6 3.8 4.6 7.7 5 9.2c0 .4.3.7.5 1l-.8 1.2a2.5 2.5 0 00-.7-.3 2.2 2.2 0 00-1.7.3 2.2 2.2 0 00-1 1.4l-.2.8a2.2 2.2 0 00.3 1.7.7.7 0 00-.5.6c0 .4.3.7.7.7a.7.7 0 00.7-.5l.6.2V16v.4a2.2 2.2 0 002.7-1.7l.2-.8a2.2 2.2 0 00-.4-1.7l1-1c.6.4 1.1 1 1.3 1a2.2 2.2 0 00-.3 1.7l.2.9a2.2 2.2 0 002.6 1.6h.1a2.2 2.2 0 001.7-2.7l-.2-.8zM21 1.6L17.7.9a.4.4 0 00-.2 0 .6.6 0 00-.6.2 27 27 0 00-1.7 6.6 37 37 0 00-1.2 7.6.6.6 0 00.5.5.4.4 0 00.1 0l3.4.8a.4.4 0 00.2-.8l-3-.6.1-1.3 3.1.6a.4.4 0 00.5-.3.4.4 0 00-.3-.5l-3.2-.6.2-1.3 3.3.7a.4.4 0 00.1-.8l-3.2-.7.2-1.2 3.3.7a.4.4 0 00.1-.8L16.1 9l.3-1.1v-.1l3.3.6a.4.4 0 00.1-.8L16.6 7l.2-1.3 3.3.7a.4.4 0 00.5-.3.4.4 0 00-.3-.5L17 5l.3-1.3 3.2.7a.4.4 0 00.2-.8l-3.2-.7.4-1.1 3 .5a.4.4 0 00.5-.3.4.4 0 00-.3-.4" fill="#292F37" fill-rule="evenodd"/></svg>