<svg width="19" height="17" xmlns="http://www.w3.org/2000/svg" xmlns:xlink="http://www.w3.org/1999/xlink"><defs><path d="M12.8 16.7h-6l-3.1 3a.4.4 0 01-.6-.5L6.3 16a.4.4 0 01.3-.2h5.9l-.6-1.5h-6l-2.4 2.2A.4.4 0 013 16l2.5-2.3a.4.4 0 01.2 0h5.8l-1.6-4a.4.4 0 01.8-.3l1.7 4.2h1.8l3.4-3.2a.4.4 0 01.6.6l-3.6 3.3a.4.4 0 01-.3.1h-1.6l.7 1.5h1.8l5-4.6a.4.4 0 11.5.6l-4.4 4h.7a.4.4 0 01.3.2l2.8 3.1a.4.4 0 11-.6.5l-2.7-3h-3.1l1 2.6a.4.4 0 11-.7.3l-1.2-2.9zm-9.8-6a.4.4 0 01-.5-.4 8.8 8.8 0 015.4-6.7 8.8 8.8 0 018.5 1.1.4.4 0 010 .7L3 10.7zM15.3 5a8 8 0 00-7.1-.5 8 8 0 00-4.7 5.3L15.3 5z" id="a"/></defs><g transform="translate(-2 -3)" fill="none" fill-rule="evenodd"><mask id="b" fill="#fff"><use xlink:href="#a"/></mask><use fill="#333" fill-rule="nonzero" xlink:href="#a"/><g mask="url(#b)" fill="#292f37"><path d="M0 0h23v23H0z"/></g></g></svg>