<svg width="12" height="21" viewBox="0 0 12 21" fill="none" xmlns="http://www.w3.org/2000/svg">
<path d="M10.3483 0.939453C10.9066 1.19699 11.1308 1.51127 11.1044 2.02197C11.0913 2.27514 10.9814 2.48466 10.8143 2.66799C10.7527 2.73347 10.6868 2.79894 10.6253 2.86442C7.98749 5.48341 5.34534 8.10677 2.70758 10.7258C2.50535 10.9266 2.50535 10.9266 2.70758 11.1317C5.36293 13.7638 8.01387 16.4003 10.6692 19.0324C10.9198 19.2812 11.122 19.5518 11.1088 19.9315C11.0913 20.3419 10.9022 20.643 10.5417 20.822C10.1812 21.001 9.82074 20.9748 9.48222 20.7478C9.3899 20.6867 9.31077 20.6081 9.23164 20.5295C6.28614 17.605 3.34064 14.6805 0.395146 11.7603C0.0654266 11.4329 -0.0796501 11.0706 0.0434453 10.6123C0.0962004 10.4246 0.206107 10.2718 0.342391 10.1409C3.32306 7.19012 6.29933 4.23502 9.2756 1.27556C9.42507 1.12715 9.60532 1.02239 9.79876 0.939453C9.9834 0.939453 10.168 0.939453 10.3483 0.939453Z" fill="#3A506B"/>
</svg>
