<svg width="22" height="21" xmlns="http://www.w3.org/2000/svg"><path d="M6.5 19.5c-.8 0-1.4-.6-1.4-1.4a1.4 1.4 0 012.7 0c0 .8-.6 1.4-1.3 1.4m0-3.6a2.2 2.2 0 00-2.2 2.2A2.2 2.2 0 106.5 16m9 3.6c-.8 0-1.5-.6-1.5-1.4a1.4 1.4 0 111.4 1.4m0-3.6a2.2 2.2 0 00-2.2 2.2 2.2 2.2 0 102.2-2.2M3.2 15a1 1 0 01-1.6-.6c0-.3 0-.5.3-.7l3-3a1 1 0 01.7-.3c.2 0 .4 0 .6.3l.7.6L3.2 15zM10 3.2a2 2 0 014.2 0 2 2 0 01-4.2 0zm10.6-2a2.5 2.5 0 00-1.8-.7 2.5 2.5 0 00-1.8.8l-2 2a2.9 2.9 0 00-3-3 2.9 2.9 0 00-2.8 3A2.9 2.9 0 0012 6l-4.5 4.6-.7-.7a1.8 1.8 0 00-2.5 0l-3 3a1.7 1.7 0 00-.5 1.3A1.7 1.7 0 002.5 16c.5 0 1-.2 1.3-.5l1-1v.1c.2 0 4 1 6.3 1.1h.2c1 0 2-.4 2.7-1 1.2-1.2 1.9-3.1 1.9-5.4V6.5a.6.6 0 00-1.2 0v2.8c0 2-.6 3.5-1.5 4.4-.6.6-1.2.9-2 .8-1.5 0-3.7-.5-5-.8L17.7 2a1.3 1.3 0 012 0 1.3 1.3 0 010 2 .6.6 0 10.8.8 2.5 2.5 0 000-3.6zm-8.7 16.5h-1.6a.4.4 0 000 .8h1.6a.4.4 0 000-.8" fill="#292f37" fill-rule="evenodd"/></svg>