<svg width="23" height="21" xmlns="http://www.w3.org/2000/svg"><g fill="#292F37" fill-rule="evenodd"><path d="M22 14.8c-1.1 0-1.8.5-2.4.9-.7.4-1.3.8-2.5.8-1.3 0-2-.4-2.6-.8-.7-.5-1.4-1-3-1-1.4 0-2.2.5-2.9 1a4 4 0 01-2.5.8c-1.2 0-1.9-.4-2.5-.8-.7-.4-1.3-.8-2.5-1a.4.4 0 00-.4.4.4.4 0 00.3.5c1 0 1.6.4 2.1.8.7.4 1.5 1 3 1s2.3-.6 3-1a4 4 0 012.5-.9c1.2 0 1.8.4 2.5.9.7.4 1.5 1 3 1 1.4 0 2.2-.6 3-1 .5-.4 1-.8 2-.8a.4.4 0 00.4-.5c0-.2-.2-.3-.4-.3M8.7 12.5c-.6.5-1.2.9-2.4.9-.6 0-1-.1-1.5-.3a.4.4 0 10-.3.7c.5.3 1.1.4 1.8.4 1.5 0 2.2-.5 2.9-1 .6-.4 1.2-.8 2.4-.8a.4.4 0 100-.8c-1.5 0-2.2.5-2.9 1m6.6.5a.4.4 0 00-.3.7c.5.3 1 .4 1.7.4 1.4 0 2.2-.5 2.8-1 .6-.4 1.1-.7 2-.8a.4.4 0 00.4-.4.4.4 0 00-.4-.4c-1.2.1-1.8.6-2.4 1-.7.4-1.2.8-2.4.8-.6 0-1-.1-1.4-.3m5 5.2l-.7.4a4 4 0 01-2.5.8c-1.3 0-2-.4-2.6-.8-.7-.4-1.4-1-3-1-1.4 0-2.2.6-2.9 1-.6.4-1.2.8-2.5.8s-1.9-.4-2.5-.8a9.1 9.1 0 00-.8-.4.4.4 0 10-.4.7l.7.4c.7.4 1.5 1 3 1s2.3-.6 3-1a4 4 0 012.5-.8c1.2 0 1.8.4 2.5.8s1.5 1 3 1c1.4 0 2.2-.6 3-1l.6-.4a.4.4 0 10-.3-.7"/><path d="M3.6 9.1h9.2v-3H3.6v3zM3 13.6a.6.6 0 00.6-.6v-3h9.2v3a.6.6 0 101.2 0V2.3a1.1 1.1 0 012.2 0 .6.6 0 101.2 0A2.3 2.3 0 0015.1 0a2.3 2.3 0 00-2.3 2.3v3H3.6v-3a1.1 1.1 0 012.3 0 .6.6 0 101.2 0A2.3 2.3 0 004.7 0a2.3 2.3 0 00-2.3 2.3V13a.6.6 0 00.6.6z"/></g></svg>