<svg width="228" height="229" viewBox="0 0 228 229" fill="none" xmlns="http://www.w3.org/2000/svg">
<path d="M22.8808 228.012C15.7279 226.67 9.91613 223.317 5.44554 217.282C0.304364 210.576 -1.03681 202.976 0.751423 194.706C4.99848 175.482 13.4926 158.27 26.2338 143.294C39.6455 127.87 55.9632 116.694 75.1867 109.765C75.6338 109.541 76.3044 109.317 77.1985 109.094C58.422 93.2234 50.375 73.3292 54.622 48.9645C57.3044 34.4351 64.6808 22.5881 76.0808 13.4234C101.116 -6.69429 136.434 -3.56488 157.669 18.5645C165.716 26.8351 171.081 36.8939 173.54 48.2939C175.998 59.6939 175.104 71.0939 171.081 82.0469C167.057 92.9998 160.351 101.941 150.74 109.317C155.434 110.882 159.457 112.447 163.481 114.459C167.281 116.247 169.293 119.823 168.846 124.07C168.398 127.647 165.716 130.553 162.14 131.67C159.457 132.341 156.775 131.67 154.316 130.553C147.163 127.2 139.563 124.741 131.74 123.4C112.293 119.823 93.5161 122.059 75.4102 129.882C56.4102 138.153 41.6573 151.117 30.7044 168.553C24.8926 177.717 20.8691 187.776 18.6338 198.506C17.0691 205.212 20.6455 210.129 27.575 210.576C28.4691 210.576 29.3632 210.576 30.2573 210.576C65.3514 210.576 100.446 210.576 135.54 210.576C137.551 210.576 139.34 210.8 141.128 211.694C147.163 215.047 147.387 223.765 141.575 227.341C140.904 227.788 140.234 228.235 139.34 228.459C100.446 228.012 61.5514 228.012 22.8808 228.012ZM113.857 103.059C135.54 103.729 156.328 86.0704 156.328 60.8116C156.328 37.341 137.998 18.341 113.857 18.341C90.1632 18.341 71.3867 37.1175 71.3867 60.8116C71.6102 85.8469 92.3985 103.506 113.857 103.059Z" fill="#00AEEF"/>
<path d="M182.928 228.012C178.01 226 176.222 222.2 176.446 217.059C176.669 210.576 176.446 204.094 176.446 197.388C176.446 195.376 175.998 194.706 173.763 194.706C166.61 194.929 159.457 194.706 152.528 194.706C146.94 194.706 143.14 190.906 143.14 185.765C143.14 180.4 146.94 176.823 152.528 176.6C159.681 176.6 166.834 176.6 173.987 176.6C175.775 176.6 176.446 175.929 176.446 174.141C176.446 166.988 176.446 159.835 176.446 152.682C176.446 147.094 180.246 143.294 185.61 143.294C190.751 143.294 194.551 147.094 194.551 152.682C194.551 159.835 194.551 166.988 194.551 173.917C194.551 175.929 195.222 176.6 197.234 176.6C203.716 176.6 210.198 176.823 216.904 176.6C222.046 176.376 225.846 178.165 227.857 183.082C227.857 184.87 227.857 186.659 227.857 188.447C225.846 193.141 222.046 195.153 216.904 194.929C210.198 194.706 203.493 194.929 197.01 194.929C195.222 194.929 194.775 195.376 194.775 197.165C194.775 203.87 194.551 210.576 194.775 217.059C194.998 222.2 193.21 226 188.293 228.012C186.504 228.012 184.716 228.012 182.928 228.012Z" fill="#00AEEF"/>
</svg>
