<svg width="20" height="20" viewBox="0 0 20 20" fill="none" xmlns="http://www.w3.org/2000/svg">
<path d="M18.8431 9.09802L18.8627 9.07841C19 8.86273 19.1569 8.60782 19.2353 8.33331C19.549 7.17645 19.3922 6.62743 18.4902 5.88233C18.1373 5.58822 17.7255 5.45096 17.3529 5.33331C16.8431 5.17645 16.6078 4.88233 16.5882 4.43135V4.41175C16.5882 4.2941 16.5686 4.17645 16.5686 4.07841C16.549 3.64704 16.4706 3.25488 16.2941 2.88233C16.098 2.49018 15.902 2.11763 15.5098 1.92155C15 1.66665 14.451 1.56861 13.8431 1.66665C13.6471 1.70586 13.4706 1.74508 13.2941 1.8039L13.1373 1.78429C12.5686 1.94116 12.1569 1.8039 11.8627 1.35292C11.8039 1.27449 11.7451 1.19606 11.7059 1.13724C11.2549 0.549001 10.6863 0.176451 9.96078 0.0195887C9.7647 -1.9148e-05 9.60784 -1.9148e-05 9.43137 0.0195887C8.70588 0.176451 8.11764 0.549001 7.68627 1.13724C7.54902 1.33331 7.37254 1.50978 7.17647 1.68626C7.07843 1.76469 7 1.8039 6.86274 1.8039C6.54902 1.82351 6.23529 1.74508 5.90196 1.66665C5.07843 1.47057 4.39215 1.549 3.86274 1.88233C3.35294 2.19606 3.0196 2.74508 2.86274 3.50978C2.80392 3.78429 2.80392 4.0588 2.80392 4.2941C2.80392 4.84312 2.56862 5.17645 2.07843 5.35292C2.0196 5.37253 1.94117 5.41175 1.86274 5.43135C1.80392 5.45096 1.72549 5.49018 1.66666 5.50979C1.0196 5.76469 0.5098 6.17645 0.176467 6.76469C0.0980353 6.88233 0.0392118 7.01959 0.0392118 7.15684C-3.88781e-06 7.58822 0.0392118 7.98037 0.156859 8.35292C0.274506 8.76469 0.5098 9.07841 0.725486 9.41175C1.0196 9.84312 1.0196 10.2353 0.764702 10.6274C0.686271 10.7451 0.607839 10.8823 0.5098 11.0196C0.176467 11.549 0.019604 12.0588 0.019604 12.647C-0.0392196 12.9608 0.0784275 13.2941 0.372545 13.6274C0.568624 13.8823 0.843133 14.1176 1.17647 14.3333C1.41176 14.4902 1.64706 14.5686 1.90196 14.6666C1.98039 14.6863 2.05882 14.7255 2.13725 14.7451C2.56862 14.9215 2.80392 15.2157 2.82353 15.647C2.82353 15.7647 2.84313 15.9019 2.84313 16.0392C2.86274 16.4314 2.92157 16.7843 3.05882 17.0588C3.29411 17.6274 3.62745 18.2157 4.43137 18.3921C4.82353 18.4706 5.17647 18.5098 5.52941 18.4706C5.78431 18.4314 6 18.3725 6.23529 18.3137L6.37254 18.2745C6.90196 18.1372 7.27451 18.2745 7.58823 18.7255C7.74509 18.9412 7.94117 19.1961 8.19607 19.3725C8.7647 19.8039 9.2549 20.0196 9.74509 20.0196C10.1961 20.0196 10.6471 19.8431 11.1569 19.4902C11.3725 19.3529 11.5882 19.1372 11.7843 18.8627C11.9216 18.6666 12.098 18.5098 12.2745 18.3529C12.3529 18.2745 12.451 18.2353 12.5882 18.2353C12.8823 18.2353 13.1569 18.2745 13.4706 18.3725C14.1372 18.5686 14.8235 18.5294 15.4706 18.2549C15.5882 18.1961 15.7451 18.1176 15.8823 17.9608C16.3529 17.4314 16.5882 16.8235 16.6471 16.0196C16.7059 15.0784 16.7451 15.0196 17.5882 14.6666C17.6078 14.6666 17.6274 14.647 17.6471 14.647C17.6667 14.647 17.6667 14.6274 17.6863 14.6274H17.7059C18.1373 14.4706 18.4902 14.2549 18.7647 13.9804L18.7843 13.9608C19.0588 13.6863 19.3725 13.3921 19.4314 12.9215C19.5294 12.2549 19.3529 11.6274 18.9412 10.9608C18.2941 10.098 18.3333 9.90194 18.8431 9.09802ZM14.7647 15.7059C14.7451 15.9215 14.7059 16.1176 14.6667 16.3333L14.6274 16.5098C14.6078 16.5882 14.5882 16.647 14.5686 16.647C14.549 16.647 14.5294 16.647 14.5098 16.647C14.4902 16.647 14.4902 16.647 14.4706 16.647C14.1765 16.6274 13.902 16.5686 13.6274 16.5098C13.4902 16.4706 13.3333 16.451 13.1961 16.4117C12.1569 16.2353 11.2353 16.5686 10.4902 17.451C10.2745 17.7059 10.0588 17.9215 9.84313 18.1176C9.74509 18.1961 9.68627 18.1961 9.58823 18.1176C9.37255 17.9215 9.15686 17.7059 8.92157 17.451C8.54902 17.0196 8.0196 16.5294 7.27451 16.3921C7.13725 16.3725 7 16.3529 6.86274 16.3529C6.54902 16.3529 6.23529 16.4117 5.92157 16.4706L5.86274 16.4902C5.56862 16.549 5.27451 16.6078 4.98039 16.647C4.90196 16.647 4.88235 16.647 4.84313 16.5294C4.74509 16.1765 4.70588 15.8235 4.68627 15.4706C4.56862 14.3137 3.94117 13.5098 2.82353 13.0392C2.54902 12.9215 2.29411 12.8039 2.05882 12.6666C1.84313 12.549 1.84313 12.549 1.94117 12.3333C2.03921 12.1176 2.17647 11.9019 2.29411 11.6863L2.35294 11.5882C2.66666 11.0588 2.82353 10.549 2.84313 10.0392C2.84313 9.47057 2.66666 8.92155 2.29411 8.35292C2.15686 8.13724 2.0196 7.90194 1.90196 7.64704C1.84313 7.50978 1.84313 7.49018 1.84313 7.47057C1.84313 7.47057 1.86274 7.43135 2 7.35292C2.27451 7.19606 2.54902 7.07841 2.78431 6.98037C3.98039 6.50978 4.60784 5.60782 4.64706 4.33331C4.64706 4.0588 4.70588 3.76469 4.78431 3.47057C4.80392 3.41175 4.80392 3.39214 4.90196 3.39214C5.19607 3.39214 5.5098 3.47057 5.7647 3.52939C6.23529 3.64704 6.66666 3.66665 7.09804 3.62743C7.92156 3.52939 8.47058 3.0392 8.88235 2.56861C9.11764 2.31371 9.31372 2.09802 9.52941 1.90194C9.62745 1.82351 9.68627 1.82351 9.78431 1.90194C10 2.09802 10.2157 2.2941 10.4118 2.52939C10.6863 2.86273 11 3.13724 11.3725 3.33331C12.0392 3.72547 12.7647 3.66665 13.3725 3.549C13.451 3.52939 13.5098 3.50978 13.5882 3.50978C13.8627 3.45096 14.1176 3.39214 14.3922 3.39214C14.549 3.39214 14.5686 3.43135 14.5882 3.549C14.6667 3.88233 14.6863 4.21567 14.7255 4.549C14.8235 5.68626 15.451 6.50978 16.549 6.96076C16.7843 7.0588 17.0392 7.17645 17.3137 7.31371C17.5686 7.45096 17.5686 7.45096 17.451 7.70586C17.3725 7.88233 17.2941 8.01959 17.1961 8.15684C17.1765 8.19606 17.1373 8.25488 17.1176 8.2941C17.0588 8.37253 17.0196 8.45096 16.9804 8.52939C16.4118 9.549 16.451 10.5882 17.1176 11.6274C17.2745 11.8627 17.4118 12.1372 17.5294 12.3921C17.5686 12.4902 17.5686 12.5294 17.4706 12.5882C17.1961 12.7451 16.9412 12.8823 16.6667 12.9804C15.451 13.4902 14.8039 14.4117 14.7647 15.7059Z" fill="#fff"/>
<path d="M12.902 7.01943C12.549 6.99982 12.3333 7.1959 12.1373 7.37237L8.70588 10.7449C8.68628 10.7645 8.64706 10.8037 8.62745 10.8233C8.60784 10.8037 8.56863 10.7645 8.54902 10.7449C8.43137 10.6273 8.33333 10.5292 8.21569 10.4116C8 10.1959 7.76471 9.9606 7.52941 9.74492C7.13726 9.37237 6.56863 9.37237 6.19608 9.72531C6.01961 9.90178 5.92157 10.1371 5.92157 10.3724C5.92157 10.6273 6.01961 10.8626 6.21569 11.039C6.58824 11.4312 6.98039 11.8037 7.37255 12.1959C7.56863 12.392 7.76471 12.5881 7.96078 12.7841C8.15686 12.9606 8.37255 13.039 8.60784 13.039C8.62745 13.039 8.64706 13.039 8.66667 13.039C8.98039 13.039 9.17647 12.8822 9.39216 12.7057C10.0588 12.039 10.7255 11.3724 11.4118 10.7057C12.0784 10.039 12.7647 9.37237 13.4314 8.7057C13.451 8.68609 13.4706 8.66648 13.4902 8.64688C13.5294 8.60766 13.5882 8.54884 13.6275 8.47041C13.8431 8.15668 13.8627 7.84296 13.6863 7.52923C13.549 7.1959 13.2745 7.03903 12.902 7.01943Z" fill="#fff"/>
</svg>
