<svg width="23" height="23" xmlns="http://www.w3.org/2000/svg"><g stroke="#333" fill="none" fill-rule="evenodd"><g stroke-width=".7"><path stroke-linejoin="round" d="M3.087 19.461V5.772H13.48v13.81"/><path d="M5.77 8.4h1.124M9.079 8.39h4.265M9.079 10.946h4.265M9.079 13.502h4.265M9.079 15.928h4.265M5.77 10.946h1.124M5.77 13.502h1.124M5.77 16.057h1.124" stroke-linecap="round"/></g><path d="M1.732 19.788H21.41" stroke-width=".7" stroke-linecap="round"/><g stroke-width=".7"><path d="M16.54 12.135v-.252a1.85 1.85 0 1 1 3.7 0v7.605"/><path d="M17.857 12.889c0-.59-.554-1.07-1.237-1.07s-1.237.48-1.237 1.07c0 .59 2.474.59 2.474 0z"/></g></g></svg>