<svg width="24" height="24" xmlns="http://www.w3.org/2000/svg"><g fill="#292F37" fill-rule="evenodd"><path d="M13.6 8a.4.4 0 00.6 0l1-1.1a.4.4 0 00-.7-.5l-1 1a.4.4 0 000 .7m2.6-2.5a.4.4 0 00.3-.2l1-1.1a.4.4 0 10-.6-.5l-1 1a.4.4 0 00.3.8"/><path d="M14.8 16.8c-.3.1-1 0-2-.7l.6-.2.8-.3.6 1.2zM2 22a.4.4 0 01-.4-.1.4.4 0 01-.1-.4L4.9 10a19 19 0 003.7 4.5 19 19 0 004.7 3.3l-1.8.7h-.2C11 18.6 9.2 18 7 16a15.5 15.5 0 01-1.3-1.3.4.4 0 00-.5 0 .4.4 0 000 .5c.3.5.8 1 1.3 1.4 1.2 1.1 2.5 2 3.5 2.4l-2.3.9h-.1c-.2 0-1.3-.3-2.7-1.6a10.1 10.1 0 01-1-1 .4.4 0 10-.5.6 10.9 10.9 0 003 2.5l-2.4.9c-.2 0-.6-.2-1.1-.7l-.3-.3a.4.4 0 10-.6.6 5.3 5.3 0 001 .8L2 22zM6.2 9.9c-.5-.7-.7-1.2-.6-1.4v-.1l1.2.4a21.3 21.3 0 01-.6 1.1zm4.7 2c1.3 1 2.2 2.1 2.9 3l-.7.3-1.1.4a22.3 22.3 0 01-2.6-2l-2.7-3h.1l.7-1.4c1 .6 2.1 1.4 3.4 2.6zm4 2.6a22.5 22.5 0 00-7-6.4c1.4-3.7.6-5.4 0-6-.5-.8-1.4-1.1-2.2-1-1.2.4-1.6 1.3-1.5 2 0 .9.6 1.4 1.4 1.4a.4.4 0 000-.8c-.4 0-.6-.3-.6-.6 0-.4.2-1 .9-1.1.5-.2 1 0 1.4.5.4.4 1.1 1.9 0 5.2C5.8 7 4.8 7 4.3 7.5a.6.6 0 00-.1.2.6.6 0 00-.1.2L.3 21.3a1.6 1.6 0 002.1 1.9l13-5a.6.6 0 00.2-.1.6.6 0 00.2-.2c.5-.5.3-1.4-.4-2.7 2-.7 3.5-1 4.3-.3.4.4.5.8.4 1.2-.1.4-.5.7-1 .8-.1 0-.5.1-.8-.2a.4.4 0 00-.5.5c.3.4.7.6 1.1.6h.5c.7-.3 1.3-.8 1.5-1.5.2-.7 0-1.4-.6-2-1.2-1-3-.7-5.4.2zm-2.7-13a1.3 1.3 0 110 2.7 1.3 1.3 0 010-2.6m0 3.4a2.1 2.1 0 002.1-2.1 2.1 2.1 0 10-2 2.1"/><path d="M10.6 7.2a.7.7 0 001.4 0 .7.7 0 00-1.4 0m12-.8a.7.7 0 000-1.3.7.7 0 000 1.3M22.5 19.3h-.1a.7.7 0 000 1.4h.2a.7.7 0 00.5-.8c0-.3-.3-.6-.7-.6m.2-8.4a.7.7 0 000 1.4.7.7 0 000-1.4m-2.1-1a.4.4 0 00-.2.3v1.3l-1-.8a.4.4 0 00-.4 0l-1.3.3.5-1.2a.4.4 0 000-.4l-.8-1h1.3l.4-.1.8-1 .3 1.2a.4.4 0 00.2.3l1.3.4-1.1.7zm2.3-.8a.4.4 0 00-.2-.3L20.7 8l-.5-1.8a.4.4 0 00-.7-.2l-1.1 1.5-2-.1a.4.4 0 10-.3.6l1 1.6-.6 1.7a.4.4 0 00.4.6l1.9-.5 1.4 1.2a.4.4 0 00.7-.3v-2l1.7-1a.4.4 0 00.1-.3z"/></g></svg>