<svg width="18" height="19" xmlns="http://www.w3.org/2000/svg" xmlns:xlink="http://www.w3.org/1999/xlink"><defs><path d="M6.4 12.4c.5 0 1-.1 1.3-.3a.4.4 0 11.4.7 3.6 3.6 0 01-1.5.4v6.3a.1.1 0 00.1.1H16a.1.1 0 00.1-.1v-6.7a.4.4 0 01.4-.4 2.9 2.9 0 10-1.3-5.6.4.4 0 11-.3-.7 3.7 3.7 0 012 7v6.4a.9.9 0 01-.9.9H6.7a.9.9 0 01-.9-.9v-6.4A3.7 3.7 0 117.3 6 4.1 4.1 0 0115 4.8a.4.4 0 11-.7.4A3.3 3.3 0 008 6.5a.4.4 0 01-.5.3 2.9 2.9 0 10-1.2 5.6h.1zm1.4 5.5a.4.4 0 010-.8h7a.4.4 0 110 .8h-7z" id="a"/></defs><g transform="translate(-2 -2)" fill="none" fill-rule="evenodd"><mask id="b" fill="#fff"><use xlink:href="#a"/></mask><use fill="#333" fill-rule="nonzero" xlink:href="#a"/><g mask="url(#b)" fill="#292F37"><path d="M0 0h23v23H0z"/></g></g></svg>