<svg width="21" height="20" xmlns="http://www.w3.org/2000/svg"><g fill="#292F37" fill-rule="evenodd"><path d="M5.4 3.1h10.7c.7 0 1.3.5 1.5 1.3-.5-.2-1-.3-1.6-.3H5.5c-.6 0-1.1.1-1.6.3.2-.7.8-1.3 1.5-1.3M2.8 7.3a.6.6 0 00.7-.5l.2-1.4c.1-.2.7-.5 1.8-.5H16c1.1 0 1.7.3 1.7.5l.3 1.4a.6.6 0 101.2-.2l-.4-2.2a2.7 2.7 0 00-2.7-2.5H5.4C4 2 2.8 3 2.7 4.4l-.4 2.2a.6.6 0 00.5.7m5.6-6h4.7A.6.6 0 0013 0H8.4a.6.6 0 100 1.2m10.8 13.6a.6.6 0 01-.6.6H2.9a.6.6 0 01-.6-.6V12A2.6 2.6 0 015 9.5h11.7a2.6 2.6 0 012.6 2.6v2.8zm1.3-6.2a.6.6 0 000-.9.6.6 0 00-.9 0l-.8.8a.6.6 0 00-.1.3 3.8 3.8 0 00-2.1-.6H4.9c-.8 0-1.5.2-2.2.7a.6.6 0 00-.1-.4l-.8-.8a.6.6 0 10-.9.9l.8.8a.6.6 0 00.3.1 3.8 3.8 0 00-.9 2.5v2.8c0 1 .8 1.8 1.8 1.8h15.7c1 0 1.8-.8 1.8-1.8v-2.8c0-1-.4-1.8-1-2.5a.6.6 0 00.3-.1l.8-.8zm-15 9a.4.4 0 00-.3.3v.5a.2.2 0 01-.2.2H3a.2.2 0 01-.2-.2V18a.4.4 0 00-.8 0v.5c0 .5.4 1 1 1h2c.5 0 1-.5 1-1V18a.4.4 0 00-.4-.4m13.5 0a.4.4 0 00-.4.4v.5a.2.2 0 01-.2.2h-2a.2.2 0 01-.2-.2V18a.4.4 0 00-.8 0v.5c0 .5.5 1 1 1h2c.6 0 1-.5 1-1V18a.4.4 0 00-.4-.4"/><path d="M6 10.8H4.3a.6.6 0 000 1.2h1.9a.6.6 0 100-1.2m6.6.2H8.8a.4.4 0 000 .8h3.9a.4.4 0 000-.8m0 1.8H8.8a.4.4 0 000 .8h3.9a.4.4 0 000-.8m4.5-2h-1.8a.6.6 0 000 1.2h1.8a.6.6 0 100-1.2"/></g></svg>